<?xml version="1.0" encoding="UTF-8" standalone="no"?>
<!-- Created with Inkscape (http://www.inkscape.org/) -->

<svg
   width="140"
   height="32"
   viewBox="0 0 37.041666 8.4666669"
   version="1.1"
   id="svg989"
   inkscape:version="1.1.2 (b8e25be833, 2022-02-05)"
   sodipodi:docname="logo.svg"
   xmlns:inkscape="http://www.inkscape.org/namespaces/inkscape"
   xmlns:sodipodi="http://sodipodi.sourceforge.net/DTD/sodipodi-0.dtd"
   xmlns:xlink="http://www.w3.org/1999/xlink"
   xmlns="http://www.w3.org/2000/svg"
   xmlns:svg="http://www.w3.org/2000/svg">
  <sodipodi:namedview
     id="namedview991"
     pagecolor="#ffffff"
     bordercolor="#666666"
     borderopacity="1.0"
     inkscape:pageshadow="2"
     inkscape:pageopacity="0.0"
     inkscape:pagecheckerboard="0"
     inkscape:document-units="mm"
     showgrid="false"
     units="px"
     inkscape:zoom="7.3714286"
     inkscape:cx="70"
     inkscape:cy="16.007752"
     inkscape:window-width="1920"
     inkscape:window-height="1057"
     inkscape:window-x="-8"
     inkscape:window-y="-8"
     inkscape:window-maximized="1"
     inkscape:current-layer="layer1" />
  <defs
     id="defs986">
    <linearGradient
       inkscape:collect="always"
       xlink:href="#linearGradient30518"
       id="linearGradient31134"
       gradientUnits="userSpaceOnUse"
       x1="101.83978"
       y1="55.225571"
       x2="238.58441"
       y2="55.225571"
       gradientTransform="matrix(0.26458334,0,0,0.26458334,-141.56914,55.595325)" />
    <linearGradient
       inkscape:collect="always"
       id="linearGradient30518">
      <stop
         style="stop-color:#000088;stop-opacity:1;"
         offset="0"
         id="stop30514" />
      <stop
         style="stop-color:#6e6eff;stop-opacity:1"
         offset="1"
         id="stop30516" />
    </linearGradient>
    <linearGradient
       inkscape:collect="always"
       xlink:href="#linearGradient30518"
       id="linearGradient1129"
       gradientUnits="userSpaceOnUse"
       gradientTransform="matrix(0.26458334,0,0,0.26458334,-141.56914,55.595325)"
       x1="101.83978"
       y1="55.225571"
       x2="238.58441"
       y2="55.225571" />
    <linearGradient
       inkscape:collect="always"
       xlink:href="#linearGradient30518"
       id="linearGradient1131"
       gradientUnits="userSpaceOnUse"
       gradientTransform="matrix(0.26458334,0,0,0.26458334,-141.56914,55.595325)"
       x1="101.83978"
       y1="55.225571"
       x2="238.58441"
       y2="55.225571" />
    <linearGradient
       inkscape:collect="always"
       xlink:href="#linearGradient30518"
       id="linearGradient1133"
       gradientUnits="userSpaceOnUse"
       gradientTransform="matrix(0.26458334,0,0,0.26458334,-141.56914,55.595325)"
       x1="101.83978"
       y1="55.225571"
       x2="238.58441"
       y2="55.225571" />
    <linearGradient
       inkscape:collect="always"
       xlink:href="#linearGradient30518"
       id="linearGradient1135"
       gradientUnits="userSpaceOnUse"
       gradientTransform="matrix(0.26458334,0,0,0.26458334,-141.56914,55.595325)"
       x1="101.83978"
       y1="55.225571"
       x2="238.58441"
       y2="55.225571" />
    <linearGradient
       inkscape:collect="always"
       xlink:href="#linearGradient30518"
       id="linearGradient1137"
       gradientUnits="userSpaceOnUse"
       gradientTransform="matrix(0.26458334,0,0,0.26458334,-141.56914,55.595325)"
       x1="101.83978"
       y1="55.225571"
       x2="238.58441"
       y2="55.225571" />
  </defs>
  <g
     inkscape:label="Camada 1"
     inkscape:groupmode="layer"
     id="layer1">
    <g
       id="g1151"
       transform="matrix(0.26701239,0,0,0.26701239,10.872815,-25.35722)"
       style="stroke-width:3.74514">
      <path
         id="path6376"
         style="color:#000000;fill:url(#linearGradient1129);fill-opacity:1;stroke-width:3.74514;stroke-linecap:round;-inkscape-stroke:none"
         d="m -37.91294,95.282826 a 1.8158799,1.8158799 0 0 0 -1.81642,1.816425 v 13.720609 a 1.8158799,1.8158799 0 0 0 10e-4,0.0108 7.2635083,7.2635083 0 0 0 7.26312,7.25383 v -0.001 h 5.4467 a 1.8158799,1.8158799 0 0 0 1.81642,-1.81436 1.8158799,1.8158799 0 0 0 -1.81642,-1.81643 h -5.4467 a 3.631754,3.631754 0 0 1 -3.6313,-3.62355 1.8158799,1.8158799 0 0 0 0,-0.009 V 97.099251 A 1.8158799,1.8158799 0 0 0 -37.913,95.282826 Z" />
      <path
         id="path6496"
         style="fill:url(#linearGradient1131);fill-opacity:1;stroke-width:0.544057;stroke-linecap:round;stroke-linejoin:round"
         d="m 5.52628,103.55726 a 7.2635083,7.2635083 0 0 0 -7.26364,7.26364 7.2635083,7.2635083 0 0 0 0.0202,0.54415 1.8158799,1.8158799 0 0 0 -0.0202,0.26148 v 12.91601 a 1.8158799,1.8158799 0 0 0 1.81642,1.81643 1.8158799,1.8158799 0 0 0 1.81488,-1.81643 v -7.43159 a 7.2635083,7.2635083 0 0 0 3.63234,0.97359 7.2635083,7.2635083 0 0 0 7.26364,-7.26364 7.2635083,7.2635083 0 0 0 -7.26364,-7.26364 z m 0,3.63182 a 3.631754,3.631754 0 0 1 3.63181,3.63182 3.631754,3.631754 0 0 1 -3.63181,3.63181 3.631754,3.631754 0 0 1 -3.63182,-3.63181 3.631754,3.631754 0 0 1 3.63182,-3.63182 z" />
      <path
         id="path6525"
         style="fill:url(#linearGradient1133);fill-opacity:1;stroke:none;stroke-width:13.6014;stroke-linecap:round;stroke-linejoin:round;stroke-miterlimit:4;stroke-dasharray:none;stroke-opacity:1"
         d="m 48.966,103.55829 a 1.8158799,1.8158799 0 0 0 -1.81642,1.81436 v 5.44721 a 1.8158799,1.8158799 0 0 0 0,10e-4 7.2635083,7.2635083 0 0 0 7.26363,7.26365 7.2635083,7.2635083 0 0 0 3.79254,-1.06919 1.8158799,1.8158799 0 0 0 1.65468,1.06815 1.8158799,1.8158799 0 0 0 1.81643,-1.81436 v -5.44928 -5.44721 a 1.8158799,1.8158799 0 0 0 -1.81643,-1.81436 1.8158799,1.8158799 0 0 0 -1.81643,1.81436 v 5.44721 0.0662 a 3.631754,3.631754 0 0 1 -3.63079,3.56671 3.631754,3.631754 0 0 1 -3.63181,-3.63182 h -10e-4 a 1.8158799,1.8158799 0 0 0 0,-0.001 v -5.44721 a 1.8158799,1.8158799 0 0 0 -1.81436,-1.81437 z" />
      <path
         id="path6541"
         style="fill:url(#linearGradient1135);fill-opacity:1;stroke:none;stroke-width:13.6014;stroke-linecap:round;stroke-linejoin:round;stroke-miterlimit:4;stroke-dasharray:none;stroke-opacity:1"
         d="m 78.85669,103.55726 a 7.2635083,7.2635083 0 0 0 -3.7853,1.09037 1.8158799,1.8158799 0 0 0 -1.66192,-1.08934 1.8158799,1.8158799 0 0 0 -1.81643,1.81436 v 5.44721 a 7.2635083,7.2635083 0 0 0 0,10e-4 v 5.44825 a 1.8158799,1.8158799 0 0 0 1.81643,1.81436 1.8158799,1.8158799 0 0 0 1.81436,-1.81436 v -5.44825 h 10e-4 a 3.631754,3.631754 0 0 1 3.6318,-3.63184 3.631754,3.631754 0 0 1 3.6313,3.62562 1.8158799,1.8158799 0 0 0 -5.3e-4,0.005 v 5.44928 a 1.8158799,1.8158799 0 0 0 1.81643,1.81435 1.8158799,1.8158799 0 0 0 1.81642,-1.81435 v -5.44928 a 1.8158799,1.8158799 0 0 0 0,-0.003 3.631754,3.631754 0 0 1 3.63132,-3.62813 3.631754,3.631754 0 0 1 3.63182,3.63181 h 5.3e-4 v 5.44825 a 1.8158799,1.8158799 0 0 0 1.81436,1.81436 1.8158799,1.8158799 0 0 0 1.81643,-1.81436 v -5.44837 h 5.2e-4 a 7.2635083,7.2635083 0 0 0 -7.26364,-7.26364 7.2635083,7.2635083 0 0 0 -5.44462,2.46238 7.2635083,7.2635083 0 0 0 -5.45032,-2.46238 z" />
      <path
         id="path6958"
         style="color:#000000;fill:url(#linearGradient1137);fill-opacity:1;stroke-width:3.74514;stroke-linecap:round;-inkscape-stroke:none"
         d="m -13.46946,95.282826 a 1.8158771,1.8158771 0 0 0 -1.81591,1.81591 1.8158771,1.8158771 0 0 0 1.81591,1.815909 1.8158771,1.8158771 0 0 0 1.81591,-1.815909 1.8158771,1.8158771 0 0 0 -1.81591,-1.81591 z m 0,7.570084 a 1.8158799,1.8158799 0 0 0 -1.81643,1.81642 v 11.59981 a 1.8158799,1.8158799 0 0 0 1.81643,1.81436 1.8158799,1.8158799 0 0 0 1.81642,-1.81436 v -11.59981 a 1.8158799,1.8158799 0 0 0 -1.81642,-1.81642 z" />
      <path
         id="path7933"
         style="fill:url(#linearGradient31134);fill-opacity:1;stroke:none;stroke-width:13.6014;stroke-linecap:round;stroke-linejoin:round;stroke-miterlimit:4;stroke-dasharray:none;stroke-opacity:1"
         d="m 29.96975,103.55726 a 7.2635083,7.2635083 0 0 0 -0.39326,0.0109 7.2635083,7.2635083 0 0 0 -0.18914,0.0155 7.2635083,7.2635083 0 0 0 -0.21756,0.0186 7.2635083,7.2635083 0 0 0 -0.13435,0.0181 7.2635083,7.2635083 0 0 0 -0.26665,0.0377 7.2635083,7.2635083 0 0 0 -0.1385,0.0263 7.2635083,7.2635083 0 0 0 -0.25218,0.0501 7.2635083,7.2635083 0 0 0 -0.15916,0.0398 7.2635083,7.2635083 0 0 0 -0.22945,0.0594 7.2635083,7.2635083 0 0 0 -0.16484,0.0506 7.2635083,7.2635083 0 0 0 -0.21394,0.0677 7.2635083,7.2635083 0 0 0 -0.16795,0.0615 7.2635083,7.2635083 0 0 0 -0.21239,0.0811 7.2635083,7.2635083 0 0 0 -0.15813,0.0682 7.2635083,7.2635083 0 0 0 -0.20309,0.091 7.2635083,7.2635083 0 0 0 -0.17777,0.0884 7.2635083,7.2635083 0 0 0 -0.17725,0.0915 7.2635083,7.2635083 0 0 0 -0.16123,0.0909 7.2635083,7.2635083 0 0 0 -0.1974,0.11678 7.2635083,7.2635083 0 0 0 -0.13746,0.0879 7.2635083,7.2635083 0 0 0 -0.19327,0.1292 7.2635083,7.2635083 0 0 0 -0.14573,0.10438 7.2635083,7.2635083 0 0 0 -0.17518,0.13178 7.2635083,7.2635083 0 0 0 -0.14108,0.11369 7.2635083,7.2635083 0 0 0 -0.16588,0.13952 7.2635083,7.2635083 0 0 0 -0.14728,0.1323 7.2635083,7.2635083 0 0 0 -0.14211,0.13435 7.2635083,7.2635083 0 0 0 -0.0739,0.0703 l 0.002,0.002 a 7.2635083,7.2635083 0 0 0 -2.12958,5.13251 1.815895,1.815895 0 0 0 0,5.2e-4 1.815895,1.815895 0 0 0 0,5.3e-4 7.2635083,7.2635083 0 0 0 0,5.3e-4 1.815895,1.815895 0 0 0 1.81642,1.8154 h 8.59224 a 3.631754,3.631754 0 0 1 -0.57722,0.75241 3.631754,3.631754 0 0 1 -0.20257,0.18758 3.631754,3.631754 0 0 1 -0.0145,0.0124 3.631754,3.631754 0 0 1 -0.20463,0.16175 3.631754,3.631754 0 0 1 -0.0212,0.015 3.631754,3.631754 0 0 1 -0.22427,0.14986 3.631754,3.631754 0 0 1 -0.006,0.004 3.631754,3.631754 0 0 1 -0.23771,0.13332 3.631754,3.631754 0 0 1 -0.016,0.008 3.631754,3.631754 0 0 1 -0.24443,0.11266 3.631754,3.631754 0 0 1 -0.0134,0.006 3.631754,3.631754 0 0 1 -0.25786,0.0951 3.631754,3.631754 0 0 1 -0.006,0.003 3.631754,3.631754 0 0 1 -0.26406,0.0744 3.631754,3.631754 0 0 1 -0.0129,0.003 3.631754,3.631754 0 0 1 -0.27389,0.0543 3.631754,3.631754 0 0 1 -5.3e-4,0 3.631754,3.631754 0 0 1 -0.28318,0.0336 3.631754,3.631754 0 0 1 -0.28474,0.0114 3.631754,3.631754 0 0 1 -2.56832,-1.06402 l -2.5678,2.56832 a 7.2635083,7.2635083 0 0 0 5.13612,2.12752 7.2635083,7.2635083 0 0 0 0.39326,-0.0109 7.2635083,7.2635083 0 0 0 0.004,0 7.2635083,7.2635083 0 0 0 0.0269,-0.002 7.2635083,7.2635083 0 0 0 0.38551,-0.0326 7.2635083,7.2635083 0 0 0 0.004,-5.3e-4 7.2635083,7.2635083 0 0 0 0.004,-5.3e-4 7.2635083,7.2635083 0 0 0 0.39843,-0.0563 7.2635083,7.2635083 0 0 0 0.001,0 7.2635083,7.2635083 0 0 0 0.002,-5.3e-4 7.2635083,7.2635083 0 0 0 0.39171,-0.078 7.2635083,7.2635083 0 0 0 0.006,-0.001 7.2635083,7.2635083 0 0 0 0.007,-0.002 7.2635083,7.2635083 0 0 0 0.37776,-0.0977 7.2635083,7.2635083 0 0 0 0.0103,-0.003 7.2635083,7.2635083 0 0 0 0.01,-0.003 7.2635083,7.2635083 0 0 0 0.37362,-0.11885 7.2635083,7.2635083 0 0 0 0.005,-0.002 7.2635083,7.2635083 0 0 0 0.004,-0.002 7.2635083,7.2635083 0 0 0 0.35243,-0.13436 7.2635083,7.2635083 0 0 0 0.0419,-0.017 7.2635083,7.2635083 0 0 0 0.34933,-0.15607 7.2635083,7.2635083 0 0 0 0.005,-0.003 7.2635083,7.2635083 0 0 0 0.004,-0.002 7.2635083,7.2635083 0 0 0 0.34571,-0.17828 7.2635083,7.2635083 0 0 0 0.0129,-0.007 7.2635083,7.2635083 0 0 0 0.004,-0.003 7.2635083,7.2635083 0 0 0 0.005,-0.003 7.2635083,7.2635083 0 0 0 0.33383,-0.19689 7.2635083,7.2635083 0 0 0 0.008,-0.005 7.2635083,7.2635083 0 0 0 0.005,-0.003 7.2635083,7.2635083 0 0 0 0.32866,-0.21962 7.2635083,7.2635083 0 0 0 0.005,-0.004 7.2635083,7.2635083 0 0 0 0.006,-0.005 7.2635083,7.2635083 0 0 0 0.3173,-0.23875 7.2635083,7.2635083 0 0 0 0.002,-0.002 7.2635083,7.2635083 0 0 0 0.003,-0.003 7.2635083,7.2635083 0 0 0 0.30489,-0.25683 7.2635083,7.2635083 0 0 0 0.004,-0.004 7.2635083,7.2635083 0 0 0 0.005,-0.005 7.2635083,7.2635083 0 0 0 0.28163,-0.26562 7.2635083,7.2635083 0 0 0 0.009,-0.009 l -5.2e-4,-5.2e-4 a 7.2635083,7.2635083 0 0 0 2.127,-5.09323 1.815895,1.815895 0 0 0 10e-4,-0.0434 1.815895,1.815895 0 0 0 -1.81643,-1.81437 h -8.59327 a 3.631754,3.631754 0 0 1 5.3e-4,-5.3e-4 3.631754,3.631754 0 0 1 0.63148,-0.80253 3.631754,3.631754 0 0 1 0.0987,-0.091 3.631754,3.631754 0 0 1 0.10336,-0.0894 3.631754,3.631754 0 0 1 0.1173,-0.092 3.631754,3.631754 0 0 1 0.10284,-0.076 3.631754,3.631754 0 0 1 0.12867,-0.0858 3.631754,3.631754 0 0 1 0.10542,-0.0662 3.631754,3.631754 0 0 1 0.12971,-0.0729 3.631754,3.631754 0 0 1 0.11472,-0.061 3.631754,3.631754 0 0 1 0.13849,-0.0641 3.631754,3.631754 0 0 1 0.11679,-0.0506 3.631754,3.631754 0 0 1 0.14676,-0.0543 3.631754,3.631754 0 0 1 0.11214,-0.0393 3.631754,3.631754 0 0 1 0.15968,-0.045 3.631754,3.631754 0 0 1 0.11059,-0.0295 3.631754,3.631754 0 0 1 0.16691,-0.0331 3.631754,3.631754 0 0 1 0.10697,-0.0202 3.631754,3.631754 0 0 1 0.17674,-0.0212 3.631754,3.631754 0 0 1 0.10025,-0.0114 3.631754,3.631754 0 0 1 2.84582,1.05265 l 2.56832,-2.5678 a 7.2635083,7.2635083 0 0 0 -5.13612,-2.12752 z" />
    </g>
  </g>
</svg>
