<?xml version="1.0" encoding="UTF-8" standalone="no"?>
<!-- Created with Inkscape (http://www.inkscape.org/) -->

<svg
   width="120"
   height="120"
   viewBox="0 0 31.750001 31.750001"
   version="1.1"
   id="svg5"
   inkscape:version="1.1.2 (b8e25be833, 2022-02-05)"
   sodipodi:docname="logo.svg"
   xmlns:inkscape="http://www.inkscape.org/namespaces/inkscape"
   xmlns:sodipodi="http://sodipodi.sourceforge.net/DTD/sodipodi-0.dtd"
   xmlns:xlink="http://www.w3.org/1999/xlink"
   xmlns="http://www.w3.org/2000/svg"
   xmlns:svg="http://www.w3.org/2000/svg">
  <sodipodi:namedview
     id="namedview7"
     pagecolor="#ffffff"
     bordercolor="#666666"
     borderopacity="1.0"
     inkscape:pageshadow="2"
     inkscape:pageopacity="0.0"
     inkscape:pagecheckerboard="0"
     inkscape:document-units="px"
     showgrid="false"
     units="px"
     inkscape:zoom="7.0666667"
     inkscape:cx="61.132075"
     inkscape:cy="58.160377"
     inkscape:window-width="1920"
     inkscape:window-height="1057"
     inkscape:window-x="-8"
     inkscape:window-y="-8"
     inkscape:window-maximized="1"
     inkscape:current-layer="layer1"
     inkscape:snap-object-midpoints="true"
     inkscape:snap-midpoints="true"
     inkscape:snap-intersection-paths="true"
     inkscape:object-paths="true"
     showguides="true"
     inkscape:guide-bbox="true"
     inkscape:snap-smooth-nodes="true"
     width="1279px" />
  <defs
     id="defs2">
    <linearGradient
       inkscape:collect="always"
       id="linearGradient20572">
      <stop
         style="stop-color:#6f6fff;stop-opacity:1"
         offset="0"
         id="stop20568" />
      <stop
         style="stop-color:#000080;stop-opacity:1"
         offset="1"
         id="stop20570" />
    </linearGradient>
    <linearGradient
       inkscape:collect="always"
       xlink:href="#linearGradient20572"
       id="linearGradient11473"
       x1="692.82532"
       y1="1012.7581"
       x2="247.94562"
       y2="1012.7576"
       gradientUnits="userSpaceOnUse" />
    <linearGradient
       inkscape:collect="always"
       xlink:href="#linearGradient20572"
       id="linearGradient18010"
       x1="286.62109"
       y1="925.78125"
       x2="536.62067"
       y2="1358.7942"
       gradientUnits="userSpaceOnUse"
       gradientTransform="matrix(0.05499249,0,0,0.05499249,-13.635102,-42.973518)" />
    <linearGradient
       inkscape:collect="always"
       xlink:href="#linearGradient20572"
       id="linearGradient20574"
       x1="286.62109"
       y1="925.78125"
       x2="786.62109"
       y2="925.78125"
       gradientUnits="userSpaceOnUse"
       gradientTransform="matrix(0.05499249,0,0,0.05499249,-13.635102,-42.973518)" />
  </defs>
  <g
     inkscape:label="Camada 1"
     inkscape:groupmode="layer"
     id="layer1">
    <g
       id="g5176"
       transform="matrix(0.44097223,0,0,0.44097223,-186.52715,-20.117174)" />
    <g
       id="g5178"
       transform="matrix(0.44097223,0,0,0.44097223,-186.52715,-20.117174)" />
    <g
       id="g5180"
       transform="matrix(0.44097223,0,0,0.44097223,-186.52715,-20.117174)" />
    <g
       id="g5182"
       transform="matrix(0.44097223,0,0,0.44097223,-186.52715,-20.117174)" />
    <g
       id="g5184"
       transform="matrix(0.44097223,0,0,0.44097223,-186.52715,-20.117174)" />
    <g
       id="g5186"
       transform="matrix(0.44097223,0,0,0.44097223,-186.52715,-20.117174)" />
    <g
       id="g5188"
       transform="matrix(0.44097223,0,0,0.44097223,-186.52715,-20.117174)" />
    <g
       id="g5190"
       transform="matrix(0.44097223,0,0,0.44097223,-186.52715,-20.117174)" />
    <g
       id="g5192"
       transform="matrix(0.44097223,0,0,0.44097223,-186.52715,-20.117174)" />
    <g
       id="g5194"
       transform="matrix(0.44097223,0,0,0.44097223,-186.52715,-20.117174)" />
    <g
       id="g5196"
       transform="matrix(0.44097223,0,0,0.44097223,-186.52715,-20.117174)" />
    <g
       id="g5198"
       transform="matrix(0.44097223,0,0,0.44097223,-186.52715,-20.117174)" />
    <g
       id="g5200"
       transform="matrix(0.44097223,0,0,0.44097223,-186.52715,-20.117174)" />
    <g
       id="g5202"
       transform="matrix(0.44097223,0,0,0.44097223,-186.52715,-20.117174)" />
    <g
       id="g5204"
       transform="matrix(0.44097223,0,0,0.44097223,-186.52715,-20.117174)" />
    <path
       id="path6368"
       style="fill:#0000ff;stroke:none;stroke-width:13.2292;stroke-linecap:round;stroke-linejoin:round;stroke-miterlimit:4;stroke-dasharray:none;stroke-opacity:1"
       d="m -175.85637,-845.99005 a 26.458334,26.458334 0 0 0 -26.45833,26.45834 h 13.22916 a 13.229167,13.229167 0 0 1 13.22917,-13.22917 13.229167,13.229167 0 0 1 13.22918,13.22917 h 13.22916 a 26.458334,26.458334 0 0 0 -26.45834,-26.45834 z" />
    <path
       id="path6370"
       style="fill:#0000ff;stroke-width:0.529167;stroke-linecap:round;stroke-linejoin:round"
       d="m -198.44959,-791.09182 a 26.458334,26.458334 0 0 0 -26.45834,26.45834 26.458334,26.458334 0 0 0 26.45834,26.45833 26.458334,26.458334 0 0 0 26.45833,-26.45833 26.458334,26.458334 0 0 0 -26.45833,-26.45834 z m 0,13.22917 a 13.229167,13.229167 0 0 1 13.22916,13.22917 13.229167,13.229167 0 0 1 -13.22916,13.22916 13.229167,13.229167 0 0 1 -13.22917,-13.22916 13.229167,13.229167 0 0 1 13.22917,-13.22917 z" />
    <path
       style="fill:none;stroke:#0000ff;stroke-width:13.2292;stroke-linecap:round;stroke-linejoin:miter;stroke-miterlimit:4;stroke-dasharray:none;stroke-opacity:1"
       d="m -271.08989,-829.18543 c 0,124.97793 0,124.97793 0,124.97793"
       id="path6372" />
    <path
       id="path6374"
       style="fill:#0000ff;stroke:none;stroke-width:13.2292;stroke-linecap:round;stroke-linejoin:round;stroke-miterlimit:4;stroke-dasharray:none;stroke-opacity:1"
       d="m -157.07055,-721.87207 a 26.458334,26.458334 0 0 0 -26.45834,26.45834 h 13.22917 a 13.229167,13.229167 0 0 1 13.22917,-13.22917 z" />
    <path
       sodipodi:type="star"
       style="fill:url(#linearGradient11473);fill-opacity:1;stroke:none;stroke-width:50.8873;stroke-linecap:round;stroke-linejoin:round;stroke-miterlimit:4;stroke-dasharray:none;stroke-opacity:1"
       id="path11125"
       inkscape:flatsided="true"
       sodipodi:sides="6"
       sodipodi:cx="470.38522"
       sodipodi:cy="1012.7581"
       sodipodi:r1="222.44011"
       sodipodi:r2="192.63878"
       sodipodi:arg1="1.0471976"
       sodipodi:arg2="1.5707963"
       inkscape:rounded="0"
       inkscape:randomized="0"
       transform="matrix(0.06180594,0.03568368,-0.03568368,0.06180594,22.941313,-63.504545)"
       d="m 581.60527,1205.3969 -222.44011,0 -111.22005,-192.6388 111.22007,-192.63877 222.44011,10e-6 111.22004,192.63876 z" />
    <path
       id="path17732"
       style="fill:url(#linearGradient18010);fill-opacity:1.0;stroke:none;stroke-width:0.264583px;stroke-linecap:butt;stroke-linejoin:miter;stroke-opacity:1"
       d="M 2.1269058,7.9375045 V 23.8125 l 13.7481232,7.937503 z" />
    <path
       id="path17734"
       style="fill:url(#linearGradient20574);fill-opacity:1;stroke:none;stroke-width:0.264583px;stroke-linecap:butt;stroke-linejoin:miter;stroke-opacity:1"
       d="M 15.875029,1.643914e-6 2.1269058,7.9375045 H 29.623148 Z" />
  </g>
</svg>
