<?xml version="1.0" encoding="UTF-8" standalone="no"?>
<!-- Created with Inkscape (http://www.inkscape.org/) -->

<svg
   width="1280"
   height="640"
   viewBox="0 0 338.66667 169.33334"
   version="1.1"
   id="svg5"
   inkscape:version="1.1.2 (b8e25be833, 2022-02-05)"
   sodipodi:docname="readme_banner.svg"
   xmlns:inkscape="http://www.inkscape.org/namespaces/inkscape"
   xmlns:sodipodi="http://sodipodi.sourceforge.net/DTD/sodipodi-0.dtd"
   xmlns:xlink="http://www.w3.org/1999/xlink"
   xmlns="http://www.w3.org/2000/svg"
   xmlns:svg="http://www.w3.org/2000/svg">
  <sodipodi:namedview
     id="namedview7"
     pagecolor="#ffffff"
     bordercolor="#666666"
     borderopacity="1.0"
     inkscape:pageshadow="2"
     inkscape:pageopacity="0.0"
     inkscape:pagecheckerboard="0"
     inkscape:document-units="px"
     showgrid="false"
     units="px"
     inkscape:zoom="1.0140625"
     inkscape:cx="640"
     inkscape:cy="319.50693"
     inkscape:window-width="1920"
     inkscape:window-height="1057"
     inkscape:window-x="-8"
     inkscape:window-y="-8"
     inkscape:window-maximized="1"
     inkscape:current-layer="layer1"
     inkscape:snap-object-midpoints="true"
     inkscape:snap-midpoints="true"
     inkscape:snap-intersection-paths="true"
     inkscape:object-paths="true"
     showguides="true"
     inkscape:guide-bbox="true"
     inkscape:snap-smooth-nodes="true">
    <sodipodi:guide
       position="423.12019,368.67773"
       orientation="0,-1"
       id="guide6386" />
    <sodipodi:guide
       position="423.12018,421.59441"
       orientation="0,-1"
       id="guide6527" />
    <sodipodi:guide
       position="505.67559,445.1209"
       orientation="0,-1"
       id="guide6868" />
    <sodipodi:guide
       position="481.86312,345.15123"
       orientation="0,-1"
       id="guide7148" />
  </sodipodi:namedview>
  <defs
     id="defs2">
    <linearGradient
       inkscape:collect="always"
       id="linearGradient30518">
      <stop
         style="stop-color:#000088;stop-opacity:1;"
         offset="0"
         id="stop30514" />
      <stop
         style="stop-color:#6e6eff;stop-opacity:1"
         offset="1"
         id="stop30516" />
    </linearGradient>
    <linearGradient
       inkscape:collect="always"
       id="linearGradient20572">
      <stop
         style="stop-color:#6f6fff;stop-opacity:0.23529412"
         offset="0"
         id="stop20568" />
      <stop
         style="stop-color:#000080;stop-opacity:1"
         offset="1"
         id="stop20570" />
    </linearGradient>
    <linearGradient
       inkscape:collect="always"
       id="linearGradient18008">
      <stop
         style="stop-color:#6e6eff;stop-opacity:0.68235296"
         offset="0"
         id="stop18004" />
      <stop
         style="stop-color:#000080;stop-opacity:1"
         offset="1"
         id="stop18006" />
    </linearGradient>
    <linearGradient
       inkscape:collect="always"
       id="linearGradient11471">
      <stop
         style="stop-color:#000080;stop-opacity:1;"
         offset="0"
         id="stop11467" />
      <stop
         style="stop-color:#6e6eff;stop-opacity:1"
         offset="1"
         id="stop11469" />
    </linearGradient>
    <linearGradient
       inkscape:collect="always"
       id="linearGradient15208">
      <stop
         style="stop-color:#001a38;stop-opacity:1"
         offset="0"
         id="stop15204" />
      <stop
         style="stop-color:#000000;stop-opacity:1"
         offset="1"
         id="stop15206" />
    </linearGradient>
    <linearGradient
       inkscape:collect="always"
       xlink:href="#linearGradient15208"
       id="linearGradient7353"
       x1="338.66669"
       y1="169.33334"
       x2="-1.7763568e-15"
       y2="-1.7763568e-15"
       gradientUnits="userSpaceOnUse" />
    <linearGradient
       inkscape:collect="always"
       xlink:href="#linearGradient11471"
       id="linearGradient11473"
       x1="247.94511"
       y1="1012.7581"
       x2="692.82533"
       y2="1012.7581"
       gradientUnits="userSpaceOnUse" />
    <linearGradient
       inkscape:collect="always"
       xlink:href="#linearGradient18008"
       id="linearGradient18010"
       x1="286.62109"
       y1="925.78125"
       x2="536.62067"
       y2="1358.7942"
       gradientUnits="userSpaceOnUse"
       gradientTransform="matrix(0.05291658,0,0,0.05291658,60.667976,76.987548)" />
    <linearGradient
       inkscape:collect="always"
       xlink:href="#linearGradient20572"
       id="linearGradient20574"
       x1="286.62109"
       y1="925.78125"
       x2="786.62109"
       y2="925.78125"
       gradientUnits="userSpaceOnUse"
       gradientTransform="matrix(0.05291658,0,0,0.05291658,60.667976,76.987548)" />
    <linearGradient
       inkscape:collect="always"
       xlink:href="#linearGradient30518"
       id="linearGradient31134"
       gradientUnits="userSpaceOnUse"
       x1="101.83978"
       y1="55.22557"
       x2="238.58441"
       y2="55.22557"
       gradientTransform="matrix(0.26458334,0,0,0.26458334,-0.87875206,0)" />
    <linearGradient
       inkscape:collect="always"
       xlink:href="#linearGradient30518"
       id="linearGradient31136"
       gradientUnits="userSpaceOnUse"
       x1="101.83978"
       y1="55.22557"
       x2="238.58441"
       y2="55.22557"
       gradientTransform="matrix(0.26458334,0,0,0.26458334,-0.87875206,0)" />
    <linearGradient
       inkscape:collect="always"
       xlink:href="#linearGradient30518"
       id="linearGradient31138"
       gradientUnits="userSpaceOnUse"
       x1="101.83978"
       y1="55.22557"
       x2="238.58441"
       y2="55.22557"
       gradientTransform="matrix(0.26458334,0,0,0.26458334,-0.87875206,0)" />
    <linearGradient
       inkscape:collect="always"
       xlink:href="#linearGradient30518"
       id="linearGradient31140"
       gradientUnits="userSpaceOnUse"
       x1="101.83978"
       y1="55.22557"
       x2="238.58441"
       y2="55.22557"
       gradientTransform="matrix(0.26458334,0,0,0.26458334,-0.87875206,0)" />
    <linearGradient
       inkscape:collect="always"
       xlink:href="#linearGradient30518"
       id="linearGradient31142"
       gradientUnits="userSpaceOnUse"
       x1="101.83978"
       y1="55.22557"
       x2="238.58441"
       y2="55.22557"
       gradientTransform="matrix(0.26458334,0,0,0.26458334,-0.87875206,0)" />
    <linearGradient
       inkscape:collect="always"
       xlink:href="#linearGradient30518"
       id="linearGradient31144"
       gradientUnits="userSpaceOnUse"
       x1="101.83978"
       y1="55.22557"
       x2="238.58441"
       y2="55.22557"
       gradientTransform="matrix(0.26458334,0,0,0.26458334,-0.87875206,0)" />
  </defs>
  <g
     inkscape:label="Camada 1"
     inkscape:groupmode="layer"
     id="layer1">
    <path
       id="rect5872"
       style="fill:#0000ff;stroke:none;stroke-width:13.2292;stroke-linecap:round;stroke-linejoin:round;stroke-miterlimit:4;stroke-dasharray:none;stroke-opacity:1"
       d="m 126.80414,-479.66647 a 26.458334,26.458334 0 0 0 -26.45833,26.45834 h 13.22916 a 13.229167,13.229167 0 0 1 13.22917,-13.22917 13.229167,13.229167 0 0 1 13.22918,13.22917 h 13.22916 a 26.458334,26.458334 0 0 0 -26.45834,-26.45834 z" />
    <rect
       style="fill:url(#linearGradient7353);fill-opacity:1;stroke-width:0.875421"
       id="rect4076"
       width="338.66669"
       height="169.33334"
       x="-1.7763568e-15"
       y="-1.7763568e-15" />
    <g
       id="g5176"
       transform="matrix(0.44097223,0,0,0.44097223,-186.52715,-20.117174)" />
    <g
       id="g5178"
       transform="matrix(0.44097223,0,0,0.44097223,-186.52715,-20.117174)" />
    <g
       id="g5180"
       transform="matrix(0.44097223,0,0,0.44097223,-186.52715,-20.117174)" />
    <g
       id="g5182"
       transform="matrix(0.44097223,0,0,0.44097223,-186.52715,-20.117174)" />
    <g
       id="g5184"
       transform="matrix(0.44097223,0,0,0.44097223,-186.52715,-20.117174)" />
    <g
       id="g5186"
       transform="matrix(0.44097223,0,0,0.44097223,-186.52715,-20.117174)" />
    <g
       id="g5188"
       transform="matrix(0.44097223,0,0,0.44097223,-186.52715,-20.117174)" />
    <g
       id="g5190"
       transform="matrix(0.44097223,0,0,0.44097223,-186.52715,-20.117174)" />
    <g
       id="g5192"
       transform="matrix(0.44097223,0,0,0.44097223,-186.52715,-20.117174)" />
    <g
       id="g5194"
       transform="matrix(0.44097223,0,0,0.44097223,-186.52715,-20.117174)" />
    <g
       id="g5196"
       transform="matrix(0.44097223,0,0,0.44097223,-186.52715,-20.117174)" />
    <g
       id="g5198"
       transform="matrix(0.44097223,0,0,0.44097223,-186.52715,-20.117174)" />
    <g
       id="g5200"
       transform="matrix(0.44097223,0,0,0.44097223,-186.52715,-20.117174)" />
    <g
       id="g5202"
       transform="matrix(0.44097223,0,0,0.44097223,-186.52715,-20.117174)" />
    <g
       id="g5204"
       transform="matrix(0.44097223,0,0,0.44097223,-186.52715,-20.117174)" />
    <path
       style="fill:none;stroke:#ffffff;stroke-width:0.529166;stroke-linecap:round;stroke-linejoin:round;stroke-miterlimit:4;stroke-dasharray:none;stroke-opacity:1"
       d="M 37.335916,103.12819 H 301.33077"
       id="path8030" />
    <path
       d="m 44.838154,84.786615 q 0,-1.255888 0.366889,-2.215443 0.381,-0.959555 1.015999,-1.594554 0.649111,-0.649111 1.495777,-0.973666 0.860777,-0.324556 1.820332,-0.324556 0.945443,0 1.777998,0.324556 0.846666,0.324555 1.481666,0.973666 0.634999,0.634999 1.001888,1.594554 0.381,0.959555 0.381,2.215443 0,1.255888 -0.381,2.215442 -0.366889,0.959555 -1.001888,1.608666 -0.635,0.634999 -1.481666,0.959555 -0.832555,0.324555 -1.777998,0.324555 -0.959555,0 -1.820332,-0.324555 -0.846666,-0.324556 -1.495777,-0.959555 -0.634999,-0.649111 -1.015999,-1.608666 -0.366889,-0.959554 -0.366889,-2.215442 z m 1.439333,0 q 0,0.888999 0.225777,1.622776 0.225778,0.719666 0.635,1.227666 0.423333,0.508 1.015999,0.790222 0.606777,0.26811 1.354666,0.26811 0.747888,0 1.340554,-0.26811 0.592666,-0.282222 1.001888,-0.790222 0.423333,-0.508 0.649111,-1.227666 0.225777,-0.733777 0.225777,-1.622776 0,-0.889 -0.225777,-1.608666 -0.225778,-0.733777 -0.649111,-1.241777 -0.409222,-0.507999 -1.001888,-0.77611 -0.592666,-0.282222 -1.340554,-0.282222 -0.747889,0 -1.354666,0.282222 -0.592666,0.268111 -1.015999,0.77611 -0.409222,0.508 -0.635,1.241777 -0.225777,0.719666 -0.225777,1.608666 z"
       style="font-size:14.1111px;line-height:1.25;font-family:Ubuntu;-inkscape-font-specification:Ubuntu;fill:#ffffff;stroke-width:0.264583"
       id="path1153" />
    <path
       d="m 56.127033,82.557061 q 0.451555,-0.112889 1.199444,-0.239889 0.747888,-0.127 1.721554,-0.127 0.874888,0 1.453443,0.254 0.578555,0.239889 0.917222,0.691444 0.352777,0.437444 0.493888,1.058333 0.141111,0.620888 0.141111,1.368776 v 4.120442 h -1.312332 v -3.83822 q 0,-0.677333 -0.09878,-1.15711 -0.08467,-0.479777 -0.296333,-0.77611 -0.211666,-0.296334 -0.564444,-0.423333 -0.352777,-0.141111 -0.874888,-0.141111 -0.211667,0 -0.437444,0.01411 -0.225778,0.01411 -0.437444,0.04233 -0.197556,0.01411 -0.366889,0.04233 -0.155222,0.02822 -0.225778,0.04233 v 6.194773 h -1.312332 z"
       style="font-size:14.1111px;line-height:1.25;font-family:Ubuntu;-inkscape-font-specification:Ubuntu;fill:#ffffff;stroke-width:0.264583"
       id="path1156" />
    <path
       d="m 66.428128,89.824278 q -1.213555,-0.02822 -1.721555,-0.522111 -0.507999,-0.493889 -0.507999,-1.53811 V 78.95873 l 1.312332,-0.225777 v 8.819437 q 0,0.324556 0.05644,0.536222 0.05644,0.211667 0.183444,0.338667 0.127,0.126999 0.338666,0.197555 0.211667,0.05644 0.522111,0.09878 z"
       style="font-size:14.1111px;line-height:1.25;font-family:Ubuntu;-inkscape-font-specification:Ubuntu;fill:#ffffff;stroke-width:0.264583"
       id="path1158" />
    <path
       d="m 69.391469,89.683167 h -1.312332 v -7.337773 h 1.312332 z m -0.663222,-8.664216 q -0.352777,0 -0.606777,-0.225778 -0.239889,-0.239888 -0.239889,-0.634999 0,-0.395111 0.239889,-0.620889 0.254,-0.239888 0.606777,-0.239888 0.352778,0 0.592667,0.239888 0.253999,0.225778 0.253999,0.620889 0,0.395111 -0.253999,0.634999 -0.239889,0.225778 -0.592667,0.225778 z"
       style="font-size:14.1111px;line-height:1.25;font-family:Ubuntu;-inkscape-font-specification:Ubuntu;fill:#ffffff;stroke-width:0.264583"
       id="path1160" />
    <path
       d="m 71.649249,82.557061 q 0.451555,-0.112889 1.199443,-0.239889 0.747889,-0.127 1.721555,-0.127 0.874888,0 1.453443,0.254 0.578555,0.239889 0.917222,0.691444 0.352777,0.437444 0.493888,1.058333 0.141111,0.620888 0.141111,1.368776 v 4.120442 h -1.312332 v -3.83822 q 0,-0.677333 -0.09878,-1.15711 -0.08467,-0.479777 -0.296333,-0.77611 -0.211667,-0.296334 -0.564444,-0.423333 -0.352778,-0.141111 -0.874888,-0.141111 -0.211667,0 -0.437444,0.01411 -0.225778,0.01411 -0.437445,0.04233 -0.197555,0.01411 -0.366888,0.04233 -0.155222,0.02822 -0.225778,0.04233 v 6.194773 h -1.312332 z"
       style="font-size:14.1111px;line-height:1.25;font-family:Ubuntu;-inkscape-font-specification:Ubuntu;fill:#ffffff;stroke-width:0.264583"
       id="path1162" />
    <path
       d="m 79.339791,86.028392 q 0,-0.973666 0.282222,-1.693332 0.282222,-0.733778 0.747888,-1.213555 0.465667,-0.479777 1.072444,-0.719666 0.606777,-0.239889 1.241777,-0.239889 1.481665,0 2.271887,0.931333 0.790221,0.917221 0.790221,2.808109 0,0.08467 0,0.225777 0,0.127 -0.01411,0.239889 h -5.023551 q 0.08467,1.142999 0.663221,1.735665 0.578555,0.592666 1.806221,0.592666 0.691444,0 1.15711,-0.112888 0.479778,-0.127 0.719667,-0.239889 l 0.183444,1.100666 q -0.239889,0.127 -0.846666,0.268111 Q 83.7989,89.8525 83.0369,89.8525 q -0.959555,0 -1.66511,-0.282222 -0.691444,-0.296333 -1.142999,-0.804333 -0.451555,-0.508 -0.677333,-1.199444 -0.211666,-0.705555 -0.211667,-1.538109 z m 5.037663,-0.719667 q 0.01411,-0.888999 -0.451556,-1.453443 -0.451555,-0.578555 -1.255887,-0.578555 -0.451556,0 -0.804333,0.183444 -0.338667,0.169334 -0.578555,0.451556 -0.239889,0.282222 -0.381,0.64911 -0.127,0.366889 -0.169333,0.747888 z"
       style="font-size:14.1111px;line-height:1.25;font-family:Ubuntu;-inkscape-font-specification:Ubuntu;fill:#ffffff;stroke-width:0.264583"
       id="path1164" />
    <path
       d="m 93.380348,88.737723 q 0.465666,0 0.818444,-0.01411 0.366888,-0.02822 0.606777,-0.08467 v -2.18722 q -0.141111,-0.07056 -0.465666,-0.112889 -0.310445,-0.05644 -0.762,-0.05644 -0.296333,0 -0.634999,0.04233 -0.324556,0.04233 -0.606778,0.183444 -0.26811,0.127 -0.451555,0.366889 -0.183444,0.225777 -0.183444,0.606777 0,0.705555 0.451555,0.987777 0.451555,0.268111 1.227666,0.268112 z M 93.267459,82.16195 q 0.790222,0 1.326443,0.211667 0.550333,0.197555 0.874889,0.578555 0.338666,0.366888 0.479777,0.888999 0.141111,0.508 0.141111,1.128888 v 4.586108 q -0.169333,0.02822 -0.479777,0.08467 -0.296333,0.04233 -0.677333,0.08467 -0.381,0.04233 -0.832555,0.07055 -0.437444,0.04233 -0.874888,0.04233 -0.620889,0 -1.142999,-0.127 -0.522111,-0.127 -0.903111,-0.395111 -0.380999,-0.282222 -0.592666,-0.733777 -0.211667,-0.451556 -0.211667,-1.086555 0,-0.606777 0.239889,-1.044221 0.254,-0.437445 0.677333,-0.705555 0.423333,-0.268111 0.987777,-0.395111 0.564444,-0.127 1.185332,-0.127 0.197556,0 0.409222,0.02822 0.211667,0.01411 0.395111,0.05644 0.197556,0.02822 0.338667,0.05645 0.141111,0.02822 0.197555,0.04233 v -0.366888 q 0,-0.324556 -0.07056,-0.635 -0.07055,-0.324555 -0.253999,-0.564444 -0.183445,-0.254 -0.508,-0.395111 -0.310444,-0.155222 -0.818444,-0.155222 -0.64911,0 -1.142999,0.09878 -0.479777,0.08467 -0.719666,0.183444 l -0.155222,-1.086555 q 0.254,-0.112888 0.846666,-0.211666 0.592666,-0.112889 1.28411,-0.112889 z"
       style="font-size:14.1111px;line-height:1.25;font-family:Ubuntu;-inkscape-font-specification:Ubuntu;fill:#ffffff;stroke-width:0.264583"
       id="path1166" />
    <path
       d="m 98.26278,82.557061 q 0.451555,-0.112889 1.199444,-0.239889 0.747886,-0.127 1.721556,-0.127 0.87489,0 1.45344,0.254 0.57856,0.239889 0.91722,0.691444 0.35278,0.437444 0.49389,1.058333 0.14111,0.620888 0.14111,1.368776 v 4.120442 h -1.31233 v -3.83822 q 0,-0.677333 -0.0988,-1.15711 -0.0847,-0.479777 -0.29633,-0.77611 -0.21167,-0.296334 -0.56444,-0.423333 -0.35278,-0.141111 -0.87489,-0.141111 -0.21167,0 -0.43745,0.01411 -0.22577,0.01411 -0.43744,0.04233 -0.197557,0.01411 -0.36689,0.04233 -0.155222,0.02822 -0.225778,0.04233 v 6.194773 H 98.26278 Z"
       style="font-size:14.1111px;line-height:1.25;font-family:Ubuntu;-inkscape-font-specification:Ubuntu;fill:#ffffff;stroke-width:0.264583"
       id="path1168" />
    <path
       d="m 111.10387,83.897615 q -0.23989,-0.197555 -0.69144,-0.380999 -0.45156,-0.183445 -0.98778,-0.183445 -0.56444,0 -0.97367,0.211667 -0.39511,0.197555 -0.64911,0.564444 -0.254,0.352777 -0.36688,0.846666 -0.11289,0.493888 -0.11289,1.058332 0,1.284111 0.635,1.989666 0.635,0.691443 1.69333,0.691443 0.53622,0 0.889,-0.04233 0.36689,-0.05644 0.56444,-0.112889 z m 0,-4.938885 1.31233,-0.225777 V 89.4715 q -0.45155,0.127 -1.15711,0.254 -0.70555,0.127 -1.62277,0.127 -0.84667,0 -1.524,-0.268111 -0.67733,-0.268111 -1.15711,-0.762 -0.47978,-0.493888 -0.74789,-1.199443 -0.254,-0.719666 -0.254,-1.608666 0,-0.846666 0.21167,-1.552221 0.22577,-0.705555 0.64911,-1.213554 0.42333,-0.508 1.03011,-0.790222 0.62089,-0.282222 1.41111,-0.282222 0.635,0 1.11477,0.169333 0.49389,0.169334 0.73378,0.324556 z"
       style="font-size:14.1111px;line-height:1.25;font-family:Ubuntu;-inkscape-font-specification:Ubuntu;fill:#ffffff;stroke-width:0.264583"
       id="path1170" />
    <path
       d="m 119.246,89.683167 h -1.31234 v -7.337773 h 1.31234 z m -0.66323,-8.664216 q -0.35277,0 -0.60677,-0.225778 -0.23989,-0.239888 -0.23989,-0.634999 0,-0.395111 0.23989,-0.620889 0.254,-0.239888 0.60677,-0.239888 0.35278,0 0.59267,0.239888 0.254,0.225778 0.254,0.620889 0,0.395111 -0.254,0.634999 -0.23989,0.225778 -0.59267,0.225778 z"
       style="font-size:14.1111px;line-height:1.25;font-family:Ubuntu;-inkscape-font-specification:Ubuntu;fill:#ffffff;stroke-width:0.264583"
       id="path1172" />
    <path
       d="m 121.50378,82.557061 q 0.45155,-0.112889 1.19944,-0.239889 0.74789,-0.127 1.72156,-0.127 0.87488,0 1.45344,0.254 0.57855,0.239889 0.91722,0.691444 0.35278,0.437444 0.49389,1.058333 0.14111,0.620888 0.14111,1.368776 v 4.120442 h -1.31233 v -3.83822 q 0,-0.677333 -0.0988,-1.15711 -0.0847,-0.479777 -0.29633,-0.77611 -0.21167,-0.296334 -0.56445,-0.423333 -0.35278,-0.141111 -0.87489,-0.141111 -0.21166,0 -0.43744,0.01411 -0.22578,0.01411 -0.43744,0.04233 -0.19756,0.01411 -0.36689,0.04233 -0.15522,0.02822 -0.22578,0.04233 v 6.194773 h -1.31233 z"
       style="font-size:14.1111px;line-height:1.25;font-family:Ubuntu;-inkscape-font-specification:Ubuntu;fill:#ffffff;stroke-width:0.264583"
       id="path1174" />
    <path
       d="m 130.83121,82.345394 h 2.77988 v 1.100666 h -2.77988 v 3.386664 q 0,0.550333 0.0847,0.917222 0.0847,0.352777 0.254,0.564444 0.16933,0.197555 0.42333,0.282222 0.254,0.08467 0.59267,0.08467 0.59267,0 0.94544,-0.127 0.36689,-0.141111 0.508,-0.197555 l 0.254,1.086555 q -0.19755,0.09878 -0.69144,0.239889 -0.49389,0.155222 -1.12889,0.155222 -0.74789,0 -1.24177,-0.183445 -0.47978,-0.197555 -0.77612,-0.578555 -0.29633,-0.381 -0.42333,-0.931332 -0.11289,-0.564444 -0.11289,-1.298222 v -6.54755 l 1.31234,-0.225778 z"
       style="font-size:14.1111px;line-height:1.25;font-family:Ubuntu;-inkscape-font-specification:Ubuntu;fill:#ffffff;stroke-width:0.264583"
       id="path1176" />
    <path
       d="m 141.1182,89.4715 q -0.45155,0.112889 -1.19944,0.239889 -0.73378,0.127 -1.70744,0.127 -0.84667,0 -1.42522,-0.239889 -0.57856,-0.254 -0.93134,-0.705555 -0.35277,-0.451555 -0.508,-1.058333 -0.15522,-0.620888 -0.15522,-1.368776 v -4.120442 h 1.31233 v 3.83822 q 0,1.340554 0.42334,1.919109 0.42333,0.578555 1.42522,0.578555 0.21166,0 0.43744,-0.01411 0.22578,-0.01411 0.42333,-0.02822 0.19756,-0.02822 0.35278,-0.04233 0.16934,-0.02822 0.23989,-0.05644 v -6.194773 h 1.31233 z"
       style="font-size:14.1111px;line-height:1.25;font-family:Ubuntu;-inkscape-font-specification:Ubuntu;fill:#ffffff;stroke-width:0.264583"
       id="path1178" />
    <path
       d="m 144.6883,89.683167 h -1.31233 v -7.337773 h 1.31233 z m -0.66322,-8.664216 q -0.35278,0 -0.60678,-0.225778 -0.23989,-0.239888 -0.23989,-0.634999 0,-0.395111 0.23989,-0.620889 0.254,-0.239888 0.60678,-0.239888 0.35278,0 0.59267,0.239888 0.254,0.225778 0.254,0.620889 0,0.395111 -0.254,0.634999 -0.23989,0.225778 -0.59267,0.225778 z"
       style="font-size:14.1111px;line-height:1.25;font-family:Ubuntu;-inkscape-font-specification:Ubuntu;fill:#ffffff;stroke-width:0.264583"
       id="path1180" />
    <path
       d="m 148.17375,82.345394 h 2.77989 v 1.100666 h -2.77989 v 3.386664 q 0,0.550333 0.0847,0.917222 0.0847,0.352777 0.254,0.564444 0.16933,0.197555 0.42333,0.282222 0.254,0.08467 0.59267,0.08467 0.59266,0 0.94544,-0.127 0.36689,-0.141111 0.508,-0.197555 l 0.254,1.086555 q -0.19756,0.09878 -0.69145,0.239889 -0.49388,0.155222 -1.12888,0.155222 -0.74789,0 -1.24178,-0.183445 -0.47978,-0.197555 -0.77611,-0.578555 -0.29633,-0.381 -0.42333,-0.931332 -0.11289,-0.564444 -0.11289,-1.298222 v -6.54755 l 1.31233,-0.225778 z"
       style="font-size:14.1111px;line-height:1.25;font-family:Ubuntu;-inkscape-font-specification:Ubuntu;fill:#ffffff;stroke-width:0.264583"
       id="path1182" />
    <path
       d="m 153.93108,89.683167 h -1.31233 v -7.337773 h 1.31233 z m -0.66322,-8.664216 q -0.35277,0 -0.60677,-0.225778 -0.23989,-0.239888 -0.23989,-0.634999 0,-0.395111 0.23989,-0.620889 0.254,-0.239888 0.60677,-0.239888 0.35278,0 0.59267,0.239888 0.254,0.225778 0.254,0.620889 0,0.395111 -0.254,0.634999 -0.23989,0.225778 -0.59267,0.225778 z"
       style="font-size:14.1111px;line-height:1.25;font-family:Ubuntu;-inkscape-font-specification:Ubuntu;fill:#ffffff;stroke-width:0.264583"
       id="path1184" />
    <path
       d="m 161.91797,82.345394 q -0.55033,2.060221 -1.29822,3.951108 -0.73378,1.890888 -1.42522,3.386665 h -1.18533 q -0.69145,-1.495777 -1.43933,-3.386665 -0.73378,-1.890887 -1.28411,-3.951108 h 1.41111 q 0.16933,0.691444 0.39511,1.481666 0.23989,0.77611 0.49389,1.552221 0.26811,0.761999 0.53622,1.481665 0.26811,0.719667 0.508,1.284111 0.23989,-0.564444 0.508,-1.284111 0.26811,-0.719666 0.52211,-1.481665 0.26811,-0.776111 0.49389,-1.552221 0.23988,-0.790222 0.40922,-1.481666 z"
       style="font-size:14.1111px;line-height:1.25;font-family:Ubuntu;-inkscape-font-specification:Ubuntu;fill:#ffffff;stroke-width:0.264583"
       id="path1186" />
    <path
       d="m 162.66588,86.028392 q 0,-0.973666 0.28222,-1.693332 0.28222,-0.733778 0.74789,-1.213555 0.46566,-0.479777 1.07244,-0.719666 0.60678,-0.239889 1.24178,-0.239889 1.48166,0 2.27188,0.931333 0.79022,0.917221 0.79022,2.808109 0,0.08467 0,0.225777 0,0.127 -0.0141,0.239889 h -5.02355 q 0.0847,1.142999 0.66322,1.735665 0.57856,0.592666 1.80622,0.592666 0.69145,0 1.15711,-0.112888 0.47978,-0.127 0.71967,-0.239889 l 0.18344,1.100666 q -0.23988,0.127 -0.84666,0.268111 -0.59267,0.141111 -1.35467,0.141111 -0.95955,0 -1.66511,-0.282222 -0.69144,-0.296333 -1.143,-0.804333 -0.45155,-0.508 -0.67733,-1.199444 -0.21166,-0.705555 -0.21166,-1.538109 z m 5.03766,-0.719667 q 0.0141,-0.888999 -0.45156,-1.453443 -0.45155,-0.578555 -1.25589,-0.578555 -0.45155,0 -0.80433,0.183444 -0.33866,0.169334 -0.57855,0.451556 -0.23989,0.282222 -0.381,0.64911 -0.127,0.366889 -0.16934,0.747888 z"
       style="font-size:14.1111px;line-height:1.25;font-family:Ubuntu;-inkscape-font-specification:Ubuntu;fill:#ffffff;stroke-width:0.264583"
       id="path1188" />
    <path
       d="m 179.31699,86.028392 q 0,-1.284111 -0.635,-1.975554 -0.635,-0.691444 -1.69334,-0.691444 -0.59266,0 -0.93133,0.04233 -0.32455,0.04233 -0.52211,0.09878 v 4.62844 q 0.23989,0.197556 0.69144,0.381 0.45156,0.183444 0.98778,0.183444 0.56445,0 0.95956,-0.197555 0.40922,-0.211666 0.66322,-0.564444 0.254,-0.366889 0.36689,-0.846666 0.11289,-0.493888 0.11289,-1.058331 z m 1.36877,0 q 0,0.832554 -0.22578,1.538109 -0.21166,0.705555 -0.63499,1.213555 -0.42334,0.508 -1.04423,0.790222 -0.60677,0.282222 -1.397,0.282222 -0.63499,0 -1.12888,-0.169333 -0.47978,-0.169334 -0.71967,-0.324556 v 2.935109 h -1.31233 v -9.722548 q 0.46566,-0.112889 1.15711,-0.239889 0.70555,-0.141111 1.62278,-0.141111 0.84666,0 1.52399,0.268111 0.67734,0.268111 1.15711,0.762 0.47978,0.493888 0.73378,1.213554 0.26811,0.705555 0.26811,1.594555 z"
       style="font-size:14.1111px;line-height:1.25;font-family:Ubuntu;-inkscape-font-specification:Ubuntu;fill:#ffffff;stroke-width:0.264583"
       id="path1190" />
    <path
       d="m 185.01788,88.737723 q 0.46567,0 0.81844,-0.01411 0.36689,-0.02822 0.60678,-0.08467 v -2.18722 q -0.14111,-0.07056 -0.46567,-0.112889 -0.31044,-0.05644 -0.762,-0.05644 -0.29633,0 -0.63499,0.04233 -0.32456,0.04233 -0.60678,0.183444 -0.26811,0.127 -0.45156,0.366889 -0.18344,0.225777 -0.18344,0.606777 0,0.705555 0.45155,0.987777 0.45156,0.268111 1.22767,0.268112 z m -0.11289,-6.575773 q 0.79022,0 1.32644,0.211667 0.55034,0.197555 0.87489,0.578555 0.33867,0.366888 0.47978,0.888999 0.14111,0.508 0.14111,1.128888 v 4.586108 q -0.16933,0.02822 -0.47978,0.08467 -0.29633,0.04233 -0.67733,0.08467 -0.381,0.04233 -0.83255,0.07055 -0.43745,0.04233 -0.87489,0.04233 -0.62089,0 -1.143,-0.127 -0.52211,-0.127 -0.90311,-0.395111 -0.381,-0.282222 -0.59267,-0.733777 -0.21167,-0.451556 -0.21167,-1.086555 0,-0.606777 0.23989,-1.044221 0.254,-0.437445 0.67734,-0.705555 0.42333,-0.268111 0.98777,-0.395111 0.56445,-0.127 1.18534,-0.127 0.19755,0 0.40922,0.02822 0.21166,0.01411 0.39511,0.05644 0.19755,0.02822 0.33866,0.05645 0.14112,0.02822 0.19756,0.04233 v -0.366888 q 0,-0.324556 -0.0706,-0.635 -0.0705,-0.324555 -0.254,-0.564444 -0.18344,-0.254 -0.50799,-0.395111 -0.31045,-0.155222 -0.81845,-0.155222 -0.64911,0 -1.143,0.09878 -0.47978,0.08467 -0.71966,0.183444 l -0.15523,-1.086555 q 0.254,-0.112888 0.84667,-0.211666 0.59267,-0.112889 1.28411,-0.112889 z"
       style="font-size:14.1111px;line-height:1.25;font-family:Ubuntu;-inkscape-font-specification:Ubuntu;fill:#ffffff;stroke-width:0.264583"
       id="path1192" />
    <path
       d="m 191.60775,88.737723 q 0.80433,0 1.18533,-0.211667 0.39511,-0.211666 0.39511,-0.677333 0,-0.479777 -0.381,-0.761999 -0.381,-0.282222 -1.25588,-0.634999 -0.42334,-0.169334 -0.81845,-0.338667 -0.381,-0.183444 -0.66322,-0.423333 -0.28222,-0.239889 -0.45155,-0.578555 -0.16934,-0.338666 -0.16934,-0.832555 0,-0.973666 0.71967,-1.53811 0.71966,-0.578555 1.96144,-0.578555 0.31045,0 0.62089,0.04233 0.31044,0.02822 0.57855,0.08467 0.26812,0.04233 0.46567,0.09878 0.21167,0.05644 0.32456,0.09878 l -0.23989,1.128888 q -0.21167,-0.112888 -0.66322,-0.225777 -0.45156,-0.127 -1.08656,-0.127 -0.55033,0 -0.95955,0.225778 -0.40923,0.211666 -0.40923,0.677332 0,0.239889 0.0847,0.423333 0.0988,0.183445 0.28222,0.338667 0.19756,0.141111 0.47978,0.268111 0.28222,0.127 0.67733,0.268111 0.52211,0.197555 0.93134,0.39511 0.40922,0.183445 0.69144,0.437444 0.29633,0.254 0.45156,0.620889 0.15522,0.352777 0.15522,0.874888 0,1.015999 -0.762,1.53811 -0.74789,0.522111 -2.14489,0.522111 -0.97367,0 -1.524,-0.169333 -0.55033,-0.155223 -0.74789,-0.239889 l 0.23989,-1.128888 q 0.22578,0.08467 0.71967,0.254 0.49389,0.169333 1.31233,0.169333 z"
       style="font-size:14.1111px;line-height:1.25;font-family:Ubuntu;-inkscape-font-specification:Ubuntu;fill:#ffffff;stroke-width:0.264583"
       id="path1194" />
    <path
       d="m 197.9013,88.737723 q 0.80433,0 1.18533,-0.211667 0.39511,-0.211666 0.39511,-0.677333 0,-0.479777 -0.381,-0.761999 -0.381,-0.282222 -1.25589,-0.634999 -0.42333,-0.169334 -0.81844,-0.338667 -0.381,-0.183444 -0.66322,-0.423333 -0.28222,-0.239889 -0.45156,-0.578555 -0.16933,-0.338666 -0.16933,-0.832555 0,-0.973666 0.71967,-1.53811 0.71966,-0.578555 1.96144,-0.578555 0.31044,0 0.62089,0.04233 0.31044,0.02822 0.57855,0.08467 0.26811,0.04233 0.46567,0.09878 0.21167,0.05644 0.32456,0.09878 l -0.23989,1.128888 q -0.21167,-0.112888 -0.66323,-0.225777 -0.45155,-0.127 -1.08655,-0.127 -0.55033,0 -0.95955,0.225778 -0.40923,0.211666 -0.40923,0.677332 0,0.239889 0.0847,0.423333 0.0988,0.183445 0.28222,0.338667 0.19756,0.141111 0.47978,0.268111 0.28222,0.127 0.67733,0.268111 0.52211,0.197555 0.93133,0.39511 0.40923,0.183445 0.69145,0.437444 0.29633,0.254 0.45155,0.620889 0.15523,0.352777 0.15523,0.874888 0,1.015999 -0.762,1.53811 -0.74789,0.522111 -2.14489,0.522111 -0.97367,0 -1.524,-0.169333 -0.55033,-0.155223 -0.74789,-0.239889 l 0.23989,-1.128888 q 0.22578,0.08467 0.71967,0.254 0.49389,0.169333 1.31233,0.169333 z"
       style="font-size:14.1111px;line-height:1.25;font-family:Ubuntu;-inkscape-font-specification:Ubuntu;fill:#ffffff;stroke-width:0.264583"
       id="path1196" />
    <path
       d="m 208.48461,89.683167 q -0.39511,-1.016 -0.84667,-2.314221 -0.43744,-1.312332 -0.80433,-2.723442 -0.36689,1.41111 -0.80433,2.723442 -0.43745,1.298221 -0.83256,2.314221 h -1.143 q -0.64911,-1.453444 -1.27,-3.316109 -0.62089,-1.862665 -1.17122,-4.021664 h 1.41111 q 0.14111,0.663222 0.33867,1.439333 0.19755,0.77611 0.40922,1.552221 0.22578,0.77611 0.46567,1.495776 0.23988,0.719666 0.45155,1.255888 0.23989,-0.663222 0.46567,-1.396999 0.23989,-0.747888 0.45155,-1.495776 0.21167,-0.762 0.39511,-1.481666 0.19756,-0.733777 0.33867,-1.368777 h 1.08655 q 0.127,0.635 0.31045,1.368777 0.18344,0.719666 0.39511,1.481666 0.21167,0.747888 0.43744,1.495776 0.23989,0.733777 0.47978,1.396999 0.21167,-0.536222 0.43745,-1.255888 0.23988,-0.719666 0.46566,-1.495776 0.22578,-0.776111 0.42333,-1.552221 0.19756,-0.776111 0.33867,-1.439333 h 1.35467 q -0.55034,2.158999 -1.17122,4.021664 -0.62089,1.862665 -1.27,3.316109 z"
       style="font-size:14.1111px;line-height:1.25;font-family:Ubuntu;-inkscape-font-specification:Ubuntu;fill:#ffffff;stroke-width:0.264583"
       id="path1198" />
    <path
       d="m 219.7594,86.01428 q 0,0.874889 -0.254,1.580444 -0.254,0.705555 -0.71967,1.213554 -0.45155,0.508 -1.08655,0.790222 -0.635,0.268111 -1.38289,0.268111 -0.74789,0 -1.38289,-0.268111 -0.635,-0.282222 -1.10066,-0.790222 -0.45156,-0.507999 -0.70556,-1.213554 -0.254,-0.705555 -0.254,-1.580444 0,-0.860777 0.254,-1.566332 0.254,-0.719666 0.70556,-1.227665 0.46566,-0.508 1.10066,-0.776111 0.635,-0.282222 1.38289,-0.282222 0.74789,0 1.38289,0.282222 0.635,0.268111 1.08655,0.776111 0.46567,0.507999 0.71967,1.227665 0.254,0.705555 0.254,1.566332 z m -1.36878,0 q 0,-1.241776 -0.56444,-1.961442 -0.55034,-0.733778 -1.50989,-0.733778 -0.95956,0 -1.524,0.733778 -0.55033,0.719666 -0.55033,1.961442 0,1.241777 0.55033,1.975554 0.56444,0.719667 1.524,0.719667 0.95955,0 1.50989,-0.719667 0.56444,-0.733777 0.56444,-1.975554 z"
       style="font-size:14.1111px;line-height:1.25;font-family:Ubuntu;-inkscape-font-specification:Ubuntu;fill:#ffffff;stroke-width:0.264583"
       id="path1200" />
    <path
       d="m 224.31728,82.190172 q 0.16933,0 0.381,0.02822 0.22578,0.01411 0.43744,0.05644 0.21167,0.02822 0.381,0.07055 0.18345,0.02822 0.26811,0.05644 l -0.22577,1.142999 q -0.15522,-0.05644 -0.52211,-0.127 -0.35278,-0.08467 -0.91723,-0.08467 -0.36688,0 -0.73377,0.08467 -0.35278,0.07056 -0.46567,0.09878 v 6.166551 h -1.31233 v -7.027328 q 0.46567,-0.169334 1.15711,-0.310445 0.69144,-0.155222 1.55222,-0.155222 z"
       style="font-size:14.1111px;line-height:1.25;font-family:Ubuntu;-inkscape-font-specification:Ubuntu;fill:#ffffff;stroke-width:0.264583"
       id="path1202" />
    <path
       d="m 231.79616,83.897615 q -0.23989,-0.197555 -0.69144,-0.380999 -0.45156,-0.183445 -0.98778,-0.183445 -0.56444,0 -0.97366,0.211667 -0.39511,0.197555 -0.64911,0.564444 -0.254,0.352777 -0.36689,0.846666 -0.11289,0.493888 -0.11289,1.058332 0,1.284111 0.635,1.989666 0.635,0.691443 1.69333,0.691443 0.53622,0 0.889,-0.04233 0.36689,-0.05644 0.56444,-0.112889 z m 0,-4.938885 1.31234,-0.225777 V 89.4715 q -0.45156,0.127 -1.15711,0.254 -0.70556,0.127 -1.62278,0.127 -0.84667,0 -1.524,-0.268111 -0.67733,-0.268111 -1.15711,-0.762 -0.47978,-0.493888 -0.74789,-1.199443 -0.254,-0.719666 -0.254,-1.608666 0,-0.846666 0.21167,-1.552221 0.22578,-0.705555 0.64911,-1.213554 0.42333,-0.508 1.03011,-0.790222 0.62089,-0.282222 1.41111,-0.282222 0.635,0 1.11478,0.169333 0.49388,0.169334 0.73377,0.324556 z"
       style="font-size:14.1111px;line-height:1.25;font-family:Ubuntu;-inkscape-font-specification:Ubuntu;fill:#ffffff;stroke-width:0.264583"
       id="path1204" />
    <path
       d="m 238.62595,82.557061 q 0.45156,-0.112889 1.18534,-0.239889 0.74789,-0.127 1.72155,-0.127 0.70556,0 1.18533,0.197556 0.47978,0.183444 0.80434,0.550333 0.0988,-0.07056 0.31044,-0.197556 0.21167,-0.127 0.52211,-0.239888 0.31045,-0.127 0.69145,-0.211667 0.38099,-0.09878 0.81844,-0.09878 0.84666,0 1.38289,0.254 0.53622,0.239889 0.83255,0.691444 0.31045,0.451555 0.40922,1.072444 0.11289,0.620888 0.11289,1.354665 v 4.120442 h -1.31233 v -3.83822 q 0,-0.64911 -0.0706,-1.114777 -0.0564,-0.465666 -0.23988,-0.77611 -0.16934,-0.310444 -0.47978,-0.451555 -0.29633,-0.155222 -0.77611,-0.155222 -0.66322,0 -1.10067,0.183444 -0.42333,0.169333 -0.57855,0.310444 0.11289,0.366889 0.16933,0.804333 0.0564,0.437444 0.0564,0.917221 v 4.120442 h -1.31233 v -3.83822 q 0,-0.64911 -0.0705,-1.114777 -0.0706,-0.465666 -0.254,-0.77611 -0.16934,-0.310444 -0.47978,-0.451555 -0.29633,-0.155222 -0.762,-0.155222 -0.19756,0 -0.42333,0.01411 -0.22578,0.01411 -0.43745,0.04233 -0.19755,0.01411 -0.36689,0.04233 -0.16933,0.02822 -0.22577,0.04233 v 6.194773 h -1.31234 z"
       style="font-size:14.1111px;line-height:1.25;font-family:Ubuntu;-inkscape-font-specification:Ubuntu;fill:#ffffff;stroke-width:0.264583"
       id="path1206" />
    <path
       d="m 253.25917,88.737723 q 0.46566,0 0.81844,-0.01411 0.36689,-0.02822 0.60678,-0.08467 v -2.18722 q -0.14111,-0.07056 -0.46567,-0.112889 -0.31044,-0.05644 -0.762,-0.05644 -0.29633,0 -0.635,0.04233 -0.32455,0.04233 -0.60678,0.183444 -0.26811,0.127 -0.45155,0.366889 -0.18344,0.225777 -0.18344,0.606777 0,0.705555 0.45155,0.987777 0.45156,0.268111 1.22767,0.268112 z m -0.11289,-6.575773 q 0.79022,0 1.32644,0.211667 0.55033,0.197555 0.87489,0.578555 0.33867,0.366888 0.47978,0.888999 0.14111,0.508 0.14111,1.128888 v 4.586108 q -0.16934,0.02822 -0.47978,0.08467 -0.29633,0.04233 -0.67733,0.08467 -0.381,0.04233 -0.83256,0.07055 -0.43744,0.04233 -0.87489,0.04233 -0.62088,0 -1.14299,-0.127 -0.52212,-0.127 -0.90312,-0.395111 -0.38099,-0.282222 -0.59266,-0.733777 -0.21167,-0.451556 -0.21167,-1.086555 0,-0.606777 0.23989,-1.044221 0.254,-0.437445 0.67733,-0.705555 0.42334,-0.268111 0.98778,-0.395111 0.56444,-0.127 1.18533,-0.127 0.19756,0 0.40922,0.02822 0.21167,0.01411 0.39512,0.05644 0.19755,0.02822 0.33866,0.05645 0.14111,0.02822 0.19756,0.04233 v -0.366888 q 0,-0.324556 -0.0706,-0.635 -0.0705,-0.324555 -0.254,-0.564444 -0.18344,-0.254 -0.508,-0.395111 -0.31044,-0.155222 -0.81844,-0.155222 -0.64911,0 -1.143,0.09878 -0.47978,0.08467 -0.71967,0.183444 l -0.15522,-1.086555 q 0.254,-0.112888 0.84667,-0.211666 0.59266,-0.112889 1.28411,-0.112889 z"
       style="font-size:14.1111px;line-height:1.25;font-family:Ubuntu;-inkscape-font-specification:Ubuntu;fill:#ffffff;stroke-width:0.264583"
       id="path1208" />
    <path
       d="m 258.14159,82.557061 q 0.45156,-0.112889 1.19945,-0.239889 0.74789,-0.127 1.72155,-0.127 0.87489,0 1.45345,0.254 0.57855,0.239889 0.91722,0.691444 0.35277,0.437444 0.49389,1.058333 0.14111,0.620888 0.14111,1.368776 v 4.120442 h -1.31234 v -3.83822 q 0,-0.677333 -0.0988,-1.15711 -0.0847,-0.479777 -0.29634,-0.77611 -0.21166,-0.296334 -0.56444,-0.423333 -0.35278,-0.141111 -0.87489,-0.141111 -0.21166,0 -0.43744,0.01411 -0.22578,0.01411 -0.43745,0.04233 -0.19755,0.01411 -0.36689,0.04233 -0.15522,0.02822 -0.22577,0.04233 v 6.194773 h -1.31234 z"
       style="font-size:14.1111px;line-height:1.25;font-family:Ubuntu;-inkscape-font-specification:Ubuntu;fill:#ffffff;stroke-width:0.264583"
       id="path1210" />
    <path
       d="m 268.72491,88.737723 q 0.46567,0 0.81844,-0.01411 0.36689,-0.02822 0.60678,-0.08467 v -2.18722 q -0.14111,-0.07056 -0.46566,-0.112889 -0.31045,-0.05644 -0.762,-0.05644 -0.29634,0 -0.635,0.04233 -0.32456,0.04233 -0.60678,0.183444 -0.26811,0.127 -0.45156,0.366889 -0.18344,0.225777 -0.18344,0.606777 0,0.705555 0.45155,0.987777 0.45156,0.268111 1.22767,0.268112 z m -0.11289,-6.575773 q 0.79022,0 1.32644,0.211667 0.55034,0.197555 0.87489,0.578555 0.33867,0.366888 0.47978,0.888999 0.14111,0.508 0.14111,1.128888 v 4.586108 q -0.16933,0.02822 -0.47978,0.08467 -0.29633,0.04233 -0.67733,0.08467 -0.381,0.04233 -0.83255,0.07055 -0.43745,0.04233 -0.87489,0.04233 -0.62089,0 -1.143,-0.127 -0.52211,-0.127 -0.90311,-0.395111 -0.381,-0.282222 -0.59267,-0.733777 -0.21166,-0.451556 -0.21166,-1.086555 0,-0.606777 0.23988,-1.044221 0.254,-0.437445 0.67734,-0.705555 0.42333,-0.268111 0.98777,-0.395111 0.56445,-0.127 1.18534,-0.127 0.19755,0 0.40922,0.02822 0.21167,0.01411 0.39511,0.05644 0.19756,0.02822 0.33867,0.05645 0.14111,0.02822 0.19755,0.04233 v -0.366888 q 0,-0.324556 -0.0705,-0.635 -0.0706,-0.324555 -0.254,-0.564444 -0.18345,-0.254 -0.508,-0.395111 -0.31045,-0.155222 -0.81845,-0.155222 -0.64911,0 -1.143,0.09878 -0.47977,0.08467 -0.71966,0.183444 l -0.15522,-1.086555 q 0.254,-0.112888 0.84666,-0.211666 0.59267,-0.112889 1.28411,-0.112889 z"
       style="font-size:14.1111px;line-height:1.25;font-family:Ubuntu;-inkscape-font-specification:Ubuntu;fill:#ffffff;stroke-width:0.264583"
       id="path1212" />
    <path
       d="m 278.20756,88.949389 q -0.16934,0.112889 -0.66322,0.296333 -0.47978,0.169334 -1.12889,0.169334 -0.66322,0 -1.25589,-0.211667 -0.57856,-0.211666 -1.016,-0.649111 -0.43744,-0.451555 -0.69144,-1.114776 -0.254,-0.663222 -0.254,-1.580444 0,-0.804332 0.23989,-1.467554 0.23988,-0.677333 0.69144,-1.15711 0.46567,-0.493889 1.12889,-0.762 0.66322,-0.282222 1.49577,-0.282222 0.91723,0 1.59456,0.141111 0.69144,0.127 1.15711,0.239889 v 6.54755 q 0,1.693333 -0.87489,2.455332 -0.87489,0.761999 -2.65289,0.761999 -0.69144,0 -1.31233,-0.112888 -0.60678,-0.112889 -1.05833,-0.268111 l 0.23989,-1.142999 q 0.39511,0.155222 0.95955,0.26811 0.57856,0.127 1.19945,0.127 1.17122,0 1.67922,-0.465666 0.52211,-0.465666 0.52211,-1.481666 z m -0.0141,-5.446884 q -0.19756,-0.05644 -0.53623,-0.09878 -0.32455,-0.05644 -0.88899,-0.05644 -1.05834,0 -1.63689,0.691443 -0.56445,0.691444 -0.56445,1.834443 0,0.635 0.15523,1.086555 0.16933,0.451555 0.43744,0.747888 0.28222,0.296334 0.635,0.437445 0.36689,0.141111 0.74789,0.141111 0.52211,0 0.95955,-0.141111 0.43745,-0.155223 0.69145,-0.352778 z"
       style="font-size:14.1111px;line-height:1.25;font-family:Ubuntu;-inkscape-font-specification:Ubuntu;fill:#ffffff;stroke-width:0.264583"
       id="path1214" />
    <path
       d="m 281.35432,86.028392 q 0,-0.973666 0.28222,-1.693332 0.28223,-0.733778 0.74789,-1.213555 0.46567,-0.479777 1.07245,-0.719666 0.60677,-0.239889 1.24177,-0.239889 1.48167,0 2.27189,0.931333 0.79022,0.917221 0.79022,2.808109 0,0.08467 0,0.225777 0,0.127 -0.0141,0.239889 h -5.02355 q 0.0847,1.142999 0.66322,1.735665 0.57855,0.592666 1.80622,0.592666 0.69144,0 1.15711,-0.112888 0.47978,-0.127 0.71967,-0.239889 l 0.18344,1.100666 q -0.23989,0.127 -0.84667,0.268111 -0.59266,0.141111 -1.35466,0.141111 -0.95956,0 -1.66511,-0.282222 -0.69144,-0.296333 -1.143,-0.804333 -0.45155,-0.508 -0.67733,-1.199444 -0.21167,-0.705555 -0.21167,-1.538109 z m 5.03766,-0.719667 q 0.0141,-0.888999 -0.45155,-1.453443 -0.45156,-0.578555 -1.25589,-0.578555 -0.45155,0 -0.80433,0.183444 -0.33867,0.169334 -0.57856,0.451556 -0.23989,0.282222 -0.381,0.64911 -0.127,0.366889 -0.16933,0.747888 z"
       style="font-size:14.1111px;line-height:1.25;font-family:Ubuntu;-inkscape-font-specification:Ubuntu;fill:#ffffff;stroke-width:0.264583"
       id="path1216" />
    <path
       d="m 292.36098,82.190172 q 0.16933,0 0.381,0.02822 0.22578,0.01411 0.43745,0.05644 0.21166,0.02822 0.381,0.07055 0.18344,0.02822 0.26811,0.05644 l -0.22578,1.142999 q -0.15522,-0.05644 -0.52211,-0.127 -0.35278,-0.08467 -0.91722,-0.08467 -0.36689,0 -0.73378,0.08467 -0.35278,0.07056 -0.46567,0.09878 v 6.166551 h -1.31233 v -7.027328 q 0.46567,-0.169334 1.15711,-0.310445 0.69144,-0.155222 1.55222,-0.155222 z"
       style="font-size:14.1111px;line-height:1.25;font-family:Ubuntu;-inkscape-font-specification:Ubuntu;fill:#ffffff;stroke-width:0.264583"
       id="path1218" />
    <path
       style="fill:none;stroke:#000000;stroke-width:0.264583px;stroke-linecap:butt;stroke-linejoin:miter;stroke-opacity:1"
       d="m -48.291243,169.33334 h -24.77278"
       id="path1155" />
    <path
       style="fill:none;stroke:#000000;stroke-width:0.264583px;stroke-linecap:butt;stroke-linejoin:miter;stroke-opacity:1"
       d="M -72.123286,0 V 39.687501"
       id="path1270" />
    <path
       style="fill:none;stroke:#000000;stroke-width:0.264583px;stroke-linecap:butt;stroke-linejoin:miter;stroke-opacity:1"
       d="m -73.064023,133.61459 v 35.71875"
       id="path1352" />
    <text
       xml:space="preserve"
       style="font-size:10.5833px;line-height:1.25;font-family:'Helvetica Neue LT W06';-inkscape-font-specification:'Helvetica Neue LT W06';stroke-width:0.264583"
       x="-107.87135"
       y="23.204884"
       id="text2402"><tspan
         sodipodi:role="line"
         id="tspan2400"
         style="stroke-width:0.264583"
         x="-107.87135"
         y="23.204884">150px</tspan></text>
    <text
       xml:space="preserve"
       style="font-size:10.5833px;line-height:1.25;font-family:'Helvetica Neue LT W06';-inkscape-font-specification:'Helvetica Neue LT W06';stroke-width:0.264583"
       x="-106.93062"
       y="154.59468"
       id="text5536"><tspan
         sodipodi:role="line"
         id="tspan5534"
         style="stroke-width:0.264583"
         x="-106.93062"
         y="154.59468">135px</tspan></text>
    <path
       style="fill:none;stroke:#000000;stroke-width:0.264583px;stroke-linecap:butt;stroke-linejoin:miter;stroke-opacity:1"
       d="M -59.736898,85.534503 H -84.509679"
       id="path6057" />
    <path
       style="fill:none;stroke:#000000;stroke-width:0.264583px;stroke-linecap:butt;stroke-linejoin:miter;stroke-opacity:1"
       d="m -47.350506,39.687501 h -24.77278"
       id="path6141" />
    <path
       style="fill:none;stroke:#000000;stroke-width:0.264583px;stroke-linecap:butt;stroke-linejoin:miter;stroke-opacity:1"
       d="m -47.350506,0 h -24.77278"
       id="path6139" />
    <path
       style="fill:none;stroke:#000000;stroke-width:0.264583px;stroke-linecap:butt;stroke-linejoin:miter;stroke-opacity:1"
       d="M -48.291242,133.61459 H -73.064023"
       id="path6223" />
    <path
       id="path5247"
       style="fill:#0000ff;stroke-width:0.529167;stroke-linecap:round;stroke-linejoin:round"
       d="m 104.21092,-424.76824 a 26.458334,26.458334 0 0 0 -26.458337,26.45834 26.458334,26.458334 0 0 0 26.458337,26.45833 26.458334,26.458334 0 0 0 26.45833,-26.45833 26.458334,26.458334 0 0 0 -26.45833,-26.45834 z m 0,13.22917 a 13.229167,13.229167 0 0 1 13.22916,13.22917 13.229167,13.229167 0 0 1 -13.22916,13.22916 13.229167,13.229167 0 0 1 -13.22917,-13.22916 13.229167,13.229167 0 0 1 13.22917,-13.22917 z" />
    <path
       style="fill:none;stroke:#0000ff;stroke-width:13.2292;stroke-linecap:round;stroke-linejoin:miter;stroke-miterlimit:4;stroke-dasharray:none;stroke-opacity:1"
       d="m 31.570624,-462.86185 c 0,124.97793 0,124.97793 0,124.97793"
       id="path5504" />
    <path
       id="rect6143"
       style="fill:#0000ff;stroke:none;stroke-width:13.2292;stroke-linecap:round;stroke-linejoin:round;stroke-miterlimit:4;stroke-dasharray:none;stroke-opacity:1"
       d="m 145.58996,-355.54849 a 26.458334,26.458334 0 0 0 -26.45834,26.45834 h 13.22917 a 13.229167,13.229167 0 0 1 13.22917,-13.22917 z" />
    <path
       id="path6368"
       style="fill:#0000ff;stroke:none;stroke-width:13.2292;stroke-linecap:round;stroke-linejoin:round;stroke-miterlimit:4;stroke-dasharray:none;stroke-opacity:1"
       d="m -175.85637,-845.99005 a 26.458334,26.458334 0 0 0 -26.45833,26.45834 h 13.22916 a 13.229167,13.229167 0 0 1 13.22917,-13.22917 13.229167,13.229167 0 0 1 13.22918,13.22917 h 13.22916 a 26.458334,26.458334 0 0 0 -26.45834,-26.45834 z" />
    <path
       id="path6370"
       style="fill:#0000ff;stroke-width:0.529167;stroke-linecap:round;stroke-linejoin:round"
       d="m -198.44959,-791.09182 a 26.458334,26.458334 0 0 0 -26.45834,26.45834 26.458334,26.458334 0 0 0 26.45834,26.45833 26.458334,26.458334 0 0 0 26.45833,-26.45833 26.458334,26.458334 0 0 0 -26.45833,-26.45834 z m 0,13.22917 a 13.229167,13.229167 0 0 1 13.22916,13.22917 13.229167,13.229167 0 0 1 -13.22916,13.22916 13.229167,13.229167 0 0 1 -13.22917,-13.22916 13.229167,13.229167 0 0 1 13.22917,-13.22917 z" />
    <path
       style="fill:none;stroke:#0000ff;stroke-width:13.2292;stroke-linecap:round;stroke-linejoin:miter;stroke-miterlimit:4;stroke-dasharray:none;stroke-opacity:1"
       d="m -271.08989,-829.18543 c 0,124.97793 0,124.97793 0,124.97793"
       id="path6372" />
    <path
       id="path6374"
       style="fill:#0000ff;stroke:none;stroke-width:13.2292;stroke-linecap:round;stroke-linejoin:round;stroke-miterlimit:4;stroke-dasharray:none;stroke-opacity:1"
       d="m -157.07055,-721.87207 a 26.458334,26.458334 0 0 0 -26.45834,26.45834 h 13.22917 a 13.229167,13.229167 0 0 1 13.22917,-13.22917 z" />
    <path
       id="path6376"
       style="color:#000000;fill:url(#linearGradient31134);fill-opacity:1;stroke-width:1;stroke-linecap:round;-inkscape-stroke:none"
       d="m 102.77745,39.687501 a 1.8158799,1.8158799 0 0 0 -1.81642,1.816425 v 13.720613 a 1.8158799,1.8158799 0 0 0 0.001,0.01085 7.2635083,7.2635083 0 0 0 7.26312,7.253823 v -0.0011 h 5.4467 a 1.8158799,1.8158799 0 0 0 1.81642,-1.814359 1.8158799,1.8158799 0 0 0 -1.81642,-1.816428 h -5.4467 a 3.631754,3.631754 0 0 1 -3.6313,-3.623551 1.8158799,1.8158799 0 0 0 0,-0.0093 V 41.503926 a 1.8158799,1.8158799 0 0 0 -1.81646,-1.816425 z" />
    <path
       id="path6496"
       style="fill:url(#linearGradient31136);fill-opacity:1;stroke-width:0.14527;stroke-linecap:round;stroke-linejoin:round"
       d="m 146.21667,47.961932 a 7.2635083,7.2635083 0 0 0 -7.26364,7.263638 7.2635083,7.2635083 0 0 0 0.0202,0.544153 1.8158799,1.8158799 0 0 0 -0.0202,0.261482 v 12.916009 a 1.8158799,1.8158799 0 0 0 1.81642,1.816426 1.8158799,1.8158799 0 0 0 1.81488,-1.816426 v -7.431587 a 7.2635083,7.2635083 0 0 0 3.63234,0.973584 7.2635083,7.2635083 0 0 0 7.26364,-7.263641 7.2635083,7.2635083 0 0 0 -7.26364,-7.263638 z m 0,3.631819 a 3.631754,3.631754 0 0 1 3.63181,3.631819 3.631754,3.631754 0 0 1 -3.63181,3.631819 3.631754,3.631754 0 0 1 -3.63182,-3.631819 3.631754,3.631754 0 0 1 3.63182,-3.631819 z" />
    <path
       id="path6525"
       style="fill:url(#linearGradient31138);fill-opacity:1;stroke:none;stroke-width:3.63175;stroke-linecap:round;stroke-linejoin:round;stroke-miterlimit:4;stroke-dasharray:none;stroke-opacity:1"
       d="m 189.65639,47.962964 a 1.8158799,1.8158799 0 0 0 -1.81642,1.814362 v 5.447213 a 1.8158799,1.8158799 0 0 0 0,0.0011 7.2635083,7.2635083 0 0 0 7.26363,7.263641 7.2635083,7.2635083 0 0 0 3.79254,-1.069187 1.8158799,1.8158799 0 0 0 1.65468,1.068152 1.8158799,1.8158799 0 0 0 1.81643,-1.814359 v -5.449279 -5.447213 a 1.8158799,1.8158799 0 0 0 -1.81643,-1.814361 1.8158799,1.8158799 0 0 0 -1.81643,1.814361 v 5.447213 0.06615 a 3.631754,3.631754 0 0 1 -3.63079,3.566705 3.631754,3.631754 0 0 1 -3.63181,-3.631819 h -0.001 a 1.8158799,1.8158799 0 0 0 0,-0.0011 V 49.77733 a 1.8158799,1.8158799 0 0 0 -1.81436,-1.814362 z" />
    <path
       id="path6541"
       style="fill:url(#linearGradient31140);fill-opacity:1;stroke:none;stroke-width:3.63175;stroke-linecap:round;stroke-linejoin:round;stroke-miterlimit:4;stroke-dasharray:none;stroke-opacity:1"
       d="m 219.54708,47.961932 a 7.2635083,7.2635083 0 0 0 -3.7853,1.090372 1.8158799,1.8158799 0 0 0 -1.66192,-1.08934 1.8158799,1.8158799 0 0 0 -1.81643,1.814362 v 5.447213 a 7.2635083,7.2635083 0 0 0 0,0.0011 v 5.448247 a 1.8158799,1.8158799 0 0 0 1.81643,1.814359 1.8158799,1.8158799 0 0 0 1.81436,-1.814359 v -5.448247 h 0.001 a 3.631754,3.631754 0 0 1 3.6318,-3.631846 3.631754,3.631754 0 0 1 3.6313,3.625618 1.8158799,1.8158799 0 0 0 -5.3e-4,0.0052 v 5.449279 a 1.8158799,1.8158799 0 0 0 1.81643,1.814359 1.8158799,1.8158799 0 0 0 1.81642,-1.814359 v -5.449279 a 1.8158799,1.8158799 0 0 0 0,-0.0026 3.631754,3.631754 0 0 1 3.63132,-3.628131 3.631754,3.631754 0 0 1 3.63182,3.631819 h 5.3e-4 v 5.448248 a 1.8158799,1.8158799 0 0 0 1.81436,1.814359 1.8158799,1.8158799 0 0 0 1.81643,-1.814359 V 55.22557 h 5.2e-4 a 7.2635083,7.2635083 0 0 0 -7.26364,-7.263638 7.2635083,7.2635083 0 0 0 -5.44462,2.462382 7.2635083,7.2635083 0 0 0 -5.45032,-2.462382 z" />
    <path
       id="path6958"
       style="color:#000000;fill:url(#linearGradient31142);fill-opacity:1;stroke-width:1;stroke-linecap:round;-inkscape-stroke:none"
       d="m 127.22093,39.687501 a 1.8158771,1.8158771 0 0 0 -1.81591,1.81591 1.8158771,1.8158771 0 0 0 1.81591,1.815909 1.8158771,1.8158771 0 0 0 1.81591,-1.815909 1.8158771,1.8158771 0 0 0 -1.81591,-1.81591 z m 0,7.570081 a 1.8158799,1.8158799 0 0 0 -1.81643,1.816426 v 11.59981 a 1.8158799,1.8158799 0 0 0 1.81643,1.814359 1.8158799,1.8158799 0 0 0 1.81642,-1.814359 v -11.59981 a 1.8158799,1.8158799 0 0 0 -1.81642,-1.816426 z" />
    <path
       id="path7933"
       style="fill:url(#linearGradient31144);fill-opacity:1;stroke:none;stroke-width:3.63175;stroke-linecap:round;stroke-linejoin:round;stroke-miterlimit:4;stroke-dasharray:none;stroke-opacity:1"
       d="m 170.66014,47.961932 a 7.2635083,7.2635083 0 0 0 -0.39326,0.01085 7.2635083,7.2635083 0 0 0 -0.18914,0.0155 7.2635083,7.2635083 0 0 0 -0.21756,0.0186 7.2635083,7.2635083 0 0 0 -0.13435,0.0181 7.2635083,7.2635083 0 0 0 -0.26665,0.03773 7.2635083,7.2635083 0 0 0 -0.1385,0.02635 7.2635083,7.2635083 0 0 0 -0.25218,0.05013 7.2635083,7.2635083 0 0 0 -0.15916,0.03979 7.2635083,7.2635083 0 0 0 -0.22945,0.05943 7.2635083,7.2635083 0 0 0 -0.16484,0.05064 7.2635083,7.2635083 0 0 0 -0.21394,0.06769 7.2635083,7.2635083 0 0 0 -0.16795,0.0615 7.2635083,7.2635083 0 0 0 -0.21239,0.08113 7.2635083,7.2635083 0 0 0 -0.15813,0.06821 7.2635083,7.2635083 0 0 0 -0.20309,0.09095 7.2635083,7.2635083 0 0 0 -0.17777,0.08837 7.2635083,7.2635083 0 0 0 -0.17725,0.09147 7.2635083,7.2635083 0 0 0 -0.16123,0.09095 7.2635083,7.2635083 0 0 0 -0.1974,0.116787 7.2635083,7.2635083 0 0 0 -0.13746,0.08785 7.2635083,7.2635083 0 0 0 -0.19327,0.129194 7.2635083,7.2635083 0 0 0 -0.14573,0.104386 7.2635083,7.2635083 0 0 0 -0.17518,0.131773 7.2635083,7.2635083 0 0 0 -0.14108,0.113689 7.2635083,7.2635083 0 0 0 -0.16588,0.139528 7.2635083,7.2635083 0 0 0 -0.14728,0.132291 7.2635083,7.2635083 0 0 0 -0.14211,0.134359 7.2635083,7.2635083 0 0 0 -0.0739,0.07028 l 0.002,0.0021 a 7.2635083,7.2635083 0 0 0 -2.12958,5.132501 1.815895,1.815895 0 0 0 0,5.29e-4 1.815895,1.815895 0 0 0 0,5.3e-4 7.2635083,7.2635083 0 0 0 0,5.29e-4 1.815895,1.815895 0 0 0 1.81642,1.815393 h 8.59224 a 3.631754,3.631754 0 0 1 -0.57722,0.752409 3.631754,3.631754 0 0 1 -0.20257,0.187584 3.631754,3.631754 0 0 1 -0.0145,0.01241 3.631754,3.631754 0 0 1 -0.20463,0.161748 3.631754,3.631754 0 0 1 -0.0212,0.01498 3.631754,3.631754 0 0 1 -0.22427,0.149862 3.631754,3.631754 0 0 1 -0.006,0.0036 3.631754,3.631754 0 0 1 -0.23771,0.133324 3.631754,3.631754 0 0 1 -0.016,0.0078 3.631754,3.631754 0 0 1 -0.24443,0.112654 3.631754,3.631754 0 0 1 -0.0134,0.0057 3.631754,3.631754 0 0 1 -0.25786,0.09508 3.631754,3.631754 0 0 1 -0.006,0.0026 3.631754,3.631754 0 0 1 -0.26406,0.07441 3.631754,3.631754 0 0 1 -0.0129,0.0031 3.631754,3.631754 0 0 1 -0.27389,0.05426 3.631754,3.631754 0 0 1 -5.3e-4,0 3.631754,3.631754 0 0 1 -0.28318,0.03359 3.631754,3.631754 0 0 1 -0.28474,0.01138 3.631754,3.631754 0 0 1 -2.56832,-1.064017 l -2.5678,2.568319 a 7.2635083,7.2635083 0 0 0 5.13612,2.12752 7.2635083,7.2635083 0 0 0 0.39326,-0.01085 7.2635083,7.2635083 0 0 0 0.004,0 7.2635083,7.2635083 0 0 0 0.0269,-0.0021 7.2635083,7.2635083 0 0 0 0.38551,-0.03256 7.2635083,7.2635083 0 0 0 0.004,-5.29e-4 7.2635083,7.2635083 0 0 0 0.004,-5.29e-4 7.2635083,7.2635083 0 0 0 0.39843,-0.05633 7.2635083,7.2635083 0 0 0 0.001,0 7.2635083,7.2635083 0 0 0 0.002,-5.3e-4 7.2635083,7.2635083 0 0 0 0.39171,-0.07803 7.2635083,7.2635083 0 0 0 0.006,-0.0011 7.2635083,7.2635083 0 0 0 0.007,-0.0016 7.2635083,7.2635083 0 0 0 0.37776,-0.09767 7.2635083,7.2635083 0 0 0 0.0103,-0.0026 7.2635083,7.2635083 0 0 0 0.01,-0.0031 7.2635083,7.2635083 0 0 0 0.37362,-0.118856 7.2635083,7.2635083 0 0 0 0.005,-0.0016 7.2635083,7.2635083 0 0 0 0.004,-0.0016 7.2635083,7.2635083 0 0 0 0.35243,-0.134358 7.2635083,7.2635083 0 0 0 0.0419,-0.01704 7.2635083,7.2635083 0 0 0 0.34933,-0.156065 7.2635083,7.2635083 0 0 0 0.005,-0.0026 7.2635083,7.2635083 0 0 0 0.004,-0.0021 7.2635083,7.2635083 0 0 0 0.34571,-0.178282 7.2635083,7.2635083 0 0 0 0.0129,-0.0067 7.2635083,7.2635083 0 0 0 0.004,-0.0026 7.2635083,7.2635083 0 0 0 0.005,-0.0026 7.2635083,7.2635083 0 0 0 0.33383,-0.196889 7.2635083,7.2635083 0 0 0 0.008,-0.0052 7.2635083,7.2635083 0 0 0 0.005,-0.0031 7.2635083,7.2635083 0 0 0 0.32866,-0.219623 7.2635083,7.2635083 0 0 0 0.005,-0.0036 7.2635083,7.2635083 0 0 0 0.006,-0.0047 7.2635083,7.2635083 0 0 0 0.3173,-0.238746 7.2635083,7.2635083 0 0 0 0.002,-0.0016 7.2635083,7.2635083 0 0 0 0.003,-0.0026 7.2635083,7.2635083 0 0 0 0.30489,-0.256833 7.2635083,7.2635083 0 0 0 0.004,-0.0036 7.2635083,7.2635083 0 0 0 0.005,-0.0052 7.2635083,7.2635083 0 0 0 0.28163,-0.265615 7.2635083,7.2635083 0 0 0 0.009,-0.0088 l -5.2e-4,-5.29e-4 a 7.2635083,7.2635083 0 0 0 2.127,-5.093229 1.815895,1.815895 0 0 0 10e-4,-0.04341 1.815895,1.815895 0 0 0 -1.81643,-1.814362 h -8.59327 a 3.631754,3.631754 0 0 1 5.3e-4,-5.29e-4 3.631754,3.631754 0 0 1 0.63148,-0.802534 3.631754,3.631754 0 0 1 0.0987,-0.09095 3.631754,3.631754 0 0 1 0.10336,-0.0894 3.631754,3.631754 0 0 1 0.1173,-0.09199 3.631754,3.631754 0 0 1 0.10284,-0.07596 3.631754,3.631754 0 0 1 0.12867,-0.08578 3.631754,3.631754 0 0 1 0.10542,-0.06615 3.631754,3.631754 0 0 1 0.12971,-0.07286 3.631754,3.631754 0 0 1 0.11472,-0.06098 3.631754,3.631754 0 0 1 0.13849,-0.06408 3.631754,3.631754 0 0 1 0.11679,-0.05064 3.631754,3.631754 0 0 1 0.14676,-0.05426 3.631754,3.631754 0 0 1 0.11214,-0.03927 3.631754,3.631754 0 0 1 0.15968,-0.04496 3.631754,3.631754 0 0 1 0.11059,-0.02946 3.631754,3.631754 0 0 1 0.16691,-0.03307 3.631754,3.631754 0 0 1 0.10697,-0.02016 3.631754,3.631754 0 0 1 0.17674,-0.02119 3.631754,3.631754 0 0 1 0.10025,-0.01138 3.631754,3.631754 0 0 1 2.84582,1.052647 l 2.56832,-2.567802 a 7.2635083,7.2635083 0 0 0 -5.13612,-2.127517 z" />
    <g
       id="g28666"
       transform="matrix(1.0392299,0,0,1.0392299,76.775266,-5.2416922)"
       style="stroke-width:0.962251">
      <path
         sodipodi:type="star"
         style="fill:url(#linearGradient11473);fill-opacity:1;stroke:none;stroke-width:50.8873;stroke-linecap:round;stroke-linejoin:round;stroke-miterlimit:4;stroke-dasharray:none;stroke-opacity:1"
         id="path11125"
         inkscape:flatsided="true"
         sodipodi:sides="6"
         sodipodi:cx="470.38522"
         sodipodi:cy="1012.7581"
         sodipodi:r1="222.44011"
         sodipodi:r2="192.63878"
         sodipodi:arg1="1.0471976"
         sodipodi:arg2="1.5707963"
         inkscape:rounded="0"
         inkscape:randomized="0"
         transform="matrix(0.05947283,0.03433666,-0.03433666,0.05947283,95.863668,57.231547)"
         d="m 581.60527,1205.3969 -222.44011,0 -111.22005,-192.6388 111.22007,-192.63877 222.44011,10e-6 111.22004,192.63876 z" />
      <path
         id="path17732"
         style="fill:url(#linearGradient18010);fill-opacity:1;stroke:none;stroke-width:0.254595px;stroke-linecap:butt;stroke-linejoin:miter;stroke-opacity:1"
         d="m 75.834984,125.97673 v 15.27573 l 13.229145,7.63787 z" />
      <path
         id="path17734"
         style="fill:url(#linearGradient20574);fill-opacity:1;stroke:none;stroke-width:0.254595px;stroke-linecap:butt;stroke-linejoin:miter;stroke-opacity:1"
         d="m 89.064129,118.33886 -13.229145,7.63787 h 26.458286 z" />
    </g>
    <rect
       style="fill:#6e6eff;fill-opacity:1;stroke:none;stroke-width:3.63167;stroke-linecap:round;stroke-linejoin:round;stroke-miterlimit:4;stroke-dasharray:none;stroke-opacity:1"
       id="rect31168"
       width="31.75"
       height="31.75"
       x="153.45834"
       y="196.2075" />
    <text
       xml:space="preserve"
       style="font-size:10.5833px;line-height:1.25;font-family:'Helvetica Neue LT W06';-inkscape-font-specification:'Helvetica Neue LT W06';stroke-width:0.264583"
       x="118.19415"
       y="207.94865"
       id="text31434"><tspan
         sodipodi:role="line"
         id="tspan31432"
         style="stroke-width:0.264583"
         x="118.19415"
         y="207.94865">120px</tspan><tspan
         sodipodi:role="line"
         style="stroke-width:0.264583"
         x="118.19415"
         y="221.17778"
         id="tspan31436">120px</tspan></text>
  </g>
</svg>
