<?xml version="1.0" encoding="UTF-8" standalone="no"?>
<svg
   height="100"
   width="100"
   viewBox="-17.714925 -4.905725 12.794112 3.6792937"
   version="1.1"
   id="svg53"
   sodipodi:docname="booking.svg"
   inkscape:version="1.1.2 (b8e25be833, 2022-02-05)"
   xmlns:inkscape="http://www.inkscape.org/namespaces/inkscape"
   xmlns:sodipodi="http://sodipodi.sourceforge.net/DTD/sodipodi-0.dtd"
   xmlns="http://www.w3.org/2000/svg"
   xmlns:svg="http://www.w3.org/2000/svg">
  <sodipodi:namedview
     id="namedview55"
     pagecolor="#ffffff"
     bordercolor="#666666"
     borderopacity="1.0"
     inkscape:pageshadow="2"
     inkscape:pageopacity="0.0"
     inkscape:pagecheckerboard="0"
     showgrid="false"
     inkscape:zoom="8.48"
     inkscape:cx="50"
     inkscape:cy="50"
     inkscape:window-width="1920"
     inkscape:window-height="1057"
     inkscape:window-x="-8"
     inkscape:window-y="-8"
     inkscape:window-maximized="1"
     inkscape:current-layer="svg53" />
  <defs
     id="defs23">
    <clipPath
       clipPathUnits="userSpaceOnUse"
       id="f">
      <path
         d="m 589.4997,28.9718 h 94.5002 V 12.9375 h -94.5002 z"
         id="path2" />
    </clipPath>
    <clipPath
       clipPathUnits="userSpaceOnUse"
       id="g">
      <path
         d="M 589.4998,12.9375 H 684 v 16.0343 h -94.5002 z"
         id="path5" />
    </clipPath>
    <clipPath
       clipPathUnits="userSpaceOnUse"
       id="c">
      <path
         d="m 589.4997,28.9718 h 94.5002 V 12.9375 h -94.5002 z"
         id="path8" />
    </clipPath>
    <clipPath
       clipPathUnits="userSpaceOnUse"
       id="d">
      <path
         d="m 589.4998,28.6562 h 94.4801 V 12.958 h -94.4801 z"
         id="path11" />
    </clipPath>
    <clipPath
       clipPathUnits="userSpaceOnUse"
       id="e">
      <path
         d="M 589.4998,12.9375 H 684 v 16.0343 h -94.5002 z"
         id="path14" />
    </clipPath>
    <clipPath
       clipPathUnits="userSpaceOnUse"
       id="a">
      <path
         d="m 589.4997,28.9718 h 94.5002 V 12.9375 h -94.5002 z"
         id="path17" />
    </clipPath>
    <clipPath
       clipPathUnits="userSpaceOnUse"
       id="b">
      <path
         d="M 589.4998,12.9375 H 684 v 16.0343 h -94.5002 z"
         id="path20" />
    </clipPath>
  </defs>
  <g
     id="g1268"
     style="fill:#273b7d;fill-opacity:1;stroke-width:7.17454"
     transform="matrix(0.13938175,0,0,0.13938175,-16.435521,-4.435375)">
    <path
       d="m 46.323425,1.79955 c 0,-0.994875 0.803,-1.7995 1.7915,-1.7995 0.991875,0 1.798,0.804625 1.798,1.7995 0,0.99375 -0.806125,1.79925 -1.798,1.79925 -0.9885,0 -1.7915,-0.805625 -1.7915,-1.79925"
       fill="#273b7d"
       id="path25"
       style="fill:#273b7d;fill-opacity:1;stroke-width:8.96818" />
    <path
       id="path1199"
       style="fill:#273b7d;fill-opacity:1;stroke-width:70.0961"
       d="m 364.94141,108.41602 c -25.58795,0 -44.14453,18.41997 -44.14453,43.78515 0,25.36519 18.55658,43.7793 44.14453,43.7793 25.6319,0 44.29101,-18.41411 44.29101,-43.7793 0,-25.36518 -18.65911,-43.78515 -44.29101,-43.78515 z m 0,20.48632 c 12.12667,0 20.63867,9.5894 20.63867,23.29883 0,13.92926 -8.30878,23.3086 -20.63867,23.3086 v -0.002 c -12.08173,0 -20.49414,-9.59428 -20.49414,-23.30664 0,-13.70943 8.41241,-23.29883 20.49414,-23.29883 z"
       transform="matrix(0.12794112,0,0,0.12794112,-17.714925,-9.4631342)" />
    <path
       style="fill:#273b7d;fill-opacity:1;stroke-width:8.96818"
       d="m 48.155875,4.62955 h -1.4615 l 0.01,8.36375 h -10e-4 v 2.45125 h 1.56 c 0.01963,0 0.03538,0.0021 0.055,0.0021 L 49.045,15.44455 h 0.72325 v -0.0042 h 0.005 l 0.0063,-9.168625 c 0,-1.10625 -0.528875,-1.642125 -1.622625,-1.642125"
       id="path1195" />
    <path
       style="fill:#273b7d;fill-opacity:1;stroke-width:8.96818"
       d="m 57.918425,4.3838 c -1.579125,0 -2.58675,0.7015 -3.151375,1.29475 l -0.1885,0.190625 -0.0665,-0.25925 C 54.346175,4.974425 53.78705,4.6248 52.945675,4.6248 H 51.5543 l 0.0087,10.81725 h 3.083375 v -4.985625 c 0,-0.4875 0.06338,-0.9105 0.19225,-1.296375 0.34325,-1.168 1.300625,-1.89425 2.49725,-1.89425 0.9625,0 1.338625,0.507875 1.338625,1.8205 v 4.71125 c 0,1.120375 0.518125,1.6445 1.63925,1.6445 h 1.467375 l -0.005,-6.88 C 61.776125,5.828675 60.443,4.3838 57.91925,4.3838"
       id="path1193" />
    <path
       style="fill:#273b7d;fill-opacity:1;stroke-width:8.96818"
       d="m 42.84705,10.289675 c -0.127125,-0.23925 -0.272875,-0.44175 -0.428125,-0.6025 l -0.09887,-0.105 0.104,-0.09975 c 0.15012,-0.15825 0.30362,-0.345875 0.45162,-0.563375 L 45.7618,4.628675 h -3.503625 l -2.1685,3.356125 c -0.12275,0.18 -0.370625,0.27075 -0.741625,0.27075 H 38.8538 v -6.345 c 0,-1.269125 -0.790625,-1.441875 -1.64475,-1.441875 H 35.7468 L 35.7493,15.4458 h 3.1045 v -4.4925 h 0.290875 c 0.353875,0 0.594875,0.04087 0.705375,0.23325 l 1.712625,3.2325 c 0.478375,0.877125 0.955125,1.02675 1.852,1.02675 H 45.7938 l -1.771875,-2.930875 -1.174875,-2.22525"
       id="path1191" />
    <path
       id="path1189"
       style="fill:#273b7d;fill-opacity:1;stroke-width:70.0961"
       d="m 270.27734,108.41602 c -25.56254,0 -44.11328,18.41997 -44.11328,43.78515 0,25.36519 18.55074,43.7793 44.11328,43.7793 25.65829,0 44.28711,-18.41411 44.28711,-43.7793 0,-25.36518 -18.62882,-43.78515 -44.28711,-43.78515 z m 0,20.48632 c 12.15208,0 20.64063,9.5894 20.64063,23.29883 0,13.92926 -8.31171,23.3086 -20.64063,23.3086 v -0.002 c -12.0827,0 -20.47851,-9.59428 -20.47851,-23.30664 0,-13.70943 8.39581,-23.29883 20.47851,-23.29883 z"
       transform="matrix(0.12794112,0,0,0.12794112,-17.714925,-9.4631342)" />
    <path
       d="m 68.277675,12.515675 c -1.68575,0 -2.28575,-1.47075 -2.28575,-2.849 0,-0.60725 0.1535,-2.586375 2.12375,-2.586375 0.979125,0 2.284,0.280625 2.284,2.68825 0,2.270875 -1.15475,2.747125 -2.122,2.747125 z m 3.722875,-7.91525 c -0.585125,0 -1.035375,0.233375 -1.261,0.659375 l -0.08525,0.165375 -0.142875,-0.124 C 70.013675,4.870425 69.1213,4.35955 67.672175,4.35955 c -2.88325,0 -4.824375,2.1655 -4.824375,5.388125 0,3.21875 2.0085,5.46825 4.882375,5.46825 0.981625,0 1.757375,-0.229 2.37225,-0.694625 l 0.238,-0.17875 v 0.30075 c 0,1.44475 -0.934375,2.24175 -2.628125,2.24175 -0.823125,0 -1.572375,-0.200375 -2.073375,-0.382125 -0.65425,-0.197375 -1.037625,-0.034 -1.302875,0.62225 l -0.24475,0.6055 -0.34625,0.8845 0.2145,0.11425 c 1.084,0.57525 2.495125,0.918625 3.770625,0.918625 2.626,0 5.692125,-1.344125 5.692125,-5.12675 l 0.01125,-9.920875 h -1.4325"
       fill="#273b7d"
       id="path37"
       style="fill:#273b7d;fill-opacity:1;stroke-width:8.96818" />
    <path
       d="m 5.3813,12.86755 -2.51,-0.0025 V 9.864175 C 2.8713,9.2228 3.119925,8.8893 3.66955,8.81255 H 5.3813 c 1.22175,0 2.011125,0.770625 2.012,2.017125 -8.75e-4,1.27925 -0.770625,2.037125 -2.012,2.037875 z M 2.8713,4.7723 V 3.98255 c 0,-0.69125 0.2925,-1.02 0.934375,-1.06225 H 5.09005 c 1.1015,0 1.76125,0.65925 1.76125,1.762 0,0.841 -0.451625,1.82225 -1.72075,1.82225 H 2.8713 Z M 8.586925,7.7673 8.133175,7.5123 8.5293,7.17355 c 0.460625,-0.396125 1.232875,-1.2865 1.232875,-2.825 0,-2.354125 -1.826,-3.8735 -4.652125,-3.8735 H 1.884925 V 0.474175 H 1.517675 C 0.6798,0.504925 0.009425,1.1863 5e-5,2.029425 V 15.3913 h 1.480125 c 0.00375,7.5e-4 0.005,0 0.00625,7.5e-4 L 5.1738,15.3913 c 3.141625,0 5.169375,-1.71 5.169375,-4.35875 0,-1.426 -0.655375,-2.64525 -1.756875,-3.26525"
       fill="#273b7d"
       id="path45"
       style="fill:#273b7d;fill-opacity:1;stroke-width:8.96818" />
  </g>
</svg>
